<?xml version="1.0" encoding="UTF-8" standalone="no"?>
<!DOCTYPE svg PUBLIC "-//W3C//DTD SVG 1.1//EN"
 "http://www.w3.org/Graphics/SVG/1.1/DTD/svg11.dtd">
<!-- Generated by graphviz version 2.26.3 (20100126.1600)
 -->
<!-- Title: cache_req_fsm Pages: 1 -->
<svg width="974pt" height="1462pt"
 viewBox="18.00 18.00 956.00 1444.00" xmlns="http://www.w3.org/2000/svg" xmlns:xlink="http://www.w3.org/1999/xlink">
<g id="graph1" class="graph" transform="scale(1 1) rotate(0) translate(22 1440)">
<title>cache_req_fsm</title>
<polygon fill="white" stroke="white" points="-4,5 -4,-1422 935,-1422 935,5 -4,5"/>
<g id="graph4" class="cluster"><title>cluster_backend</title>
<polygon fill="aliceblue" stroke="aliceblue" points="44,-314 44,-440 384,-440 384,-314 44,-314"/>
</g>
<!-- acceptor -->
<g id="node1" class="node"><title>acceptor</title>
<polygon fill="none" stroke="black" points="585.911,-1317 531.455,-1338.23 422.545,-1338.23 368.089,-1317 422.545,-1295.77 531.455,-1295.77 585.911,-1317"/>
<text text-anchor="middle" x="477" y="-1313.4" font-family="Times Roman,serif" font-size="14.00">Request received</text>
</g>
<!-- recv -->
<g id="node5" class="node"><title>recv</title>
<polygon fill="none" stroke="black" points="540,-1173 540,-1251 794,-1251 794,-1173 540,-1173"/>
<text text-anchor="middle" x="667" y="-1234.4" font-family="Times Roman,serif" font-size="14.00">cnt_recv:</text>
<polyline fill="none" stroke="black" points="540,-1225 794,-1225 "/>
<text text-anchor="middle" x="613" y="-1208.4" font-family="Times Roman,serif" font-size="14.00">vcl_recv{}</text>
<polyline fill="none" stroke="black" points="686,-1199 686,-1225 "/>
<text text-anchor="middle" x="740" y="-1208.4" font-family="Times Roman,serif" font-size="14.00">req.*</text>
<polyline fill="none" stroke="black" points="540,-1199 794,-1199 "/>
<text text-anchor="middle" x="565" y="-1182.4" font-family="Times Roman,serif" font-size="14.00">hash</text>
<polyline fill="none" stroke="black" points="590,-1173 590,-1199 "/>
<text text-anchor="middle" x="618" y="-1182.4" font-family="Times Roman,serif" font-size="14.00">purge</text>
<polyline fill="none" stroke="black" points="646,-1173 646,-1199 "/>
<text text-anchor="middle" x="669.5" y="-1182.4" font-family="Times Roman,serif" font-size="14.00">pass</text>
<polyline fill="none" stroke="black" points="693,-1173 693,-1199 "/>
<text text-anchor="middle" x="715.5" y="-1182.4" font-family="Times Roman,serif" font-size="14.00">pipe</text>
<polyline fill="none" stroke="black" points="738,-1173 738,-1199 "/>
<text text-anchor="middle" x="766" y="-1182.4" font-family="Times Roman,serif" font-size="14.00">synth</text>
</g>
<!-- acceptor&#45;&gt;recv -->
<g id="edge4" class="edge"><title>acceptor&#45;&gt;recv</title>
<path fill="none" stroke="black" stroke-width="2" d="M515.449,-1295.75C536.116,-1284.33 562.397,-1269.81 587.249,-1256.07"/>
<polygon fill="black" stroke="black" points="589.267,-1258.96 596.327,-1251.06 585.882,-1252.83 589.267,-1258.96"/>
</g>
<!-- ESI_REQ -->
<g id="node2" class="node"><title>ESI_REQ</title>
<polygon fill="none" stroke="black" points="729.87,-1317 698.435,-1338.23 635.565,-1338.23 604.13,-1317 635.565,-1295.77 698.435,-1295.77 729.87,-1317"/>
<text text-anchor="middle" x="667" y="-1313.4" font-family="Times Roman,serif" font-size="14.00">ESI_REQ</text>
</g>
<!-- ESI_REQ&#45;&gt;recv -->
<g id="edge2" class="edge"><title>ESI_REQ&#45;&gt;recv</title>
<path fill="none" stroke="black" d="M667,-1295.75C667,-1285.73 667,-1273.33 667,-1261.16"/>
<polygon fill="black" stroke="black" points="670.5,-1261.06 667,-1251.06 663.5,-1261.06 670.5,-1261.06"/>
</g>
<!-- RESTART -->
<g id="node3" class="node"><title>RESTART</title>
<text text-anchor="middle" x="826" y="-1396.4" font-family="Times Roman,serif" font-size="14.00">RESTART</text>
</g>
<!-- restart -->
<g id="node57" class="node"><title>restart</title>
<polygon fill="none" stroke="grey" points="748,-1291 748,-1343 904,-1343 904,-1291 748,-1291"/>
<text text-anchor="middle" x="826" y="-1326.4" font-family="Times Roman,serif" font-size="14.00" fill="grey">cnt_restart:</text>
<polyline fill="none" stroke="grey" points="748,-1317 904,-1317 "/>
<text text-anchor="middle" x="768.5" y="-1300.4" font-family="Times Roman,serif" font-size="14.00" fill="grey">ok?</text>
<polyline fill="none" stroke="grey" points="789,-1291 789,-1317 "/>
<text text-anchor="middle" x="846.5" y="-1300.4" font-family="Times Roman,serif" font-size="14.00" fill="grey">max_restarts?</text>
</g>
<!-- RESTART&#45;&gt;restart -->
<g id="edge64" class="edge"><title>RESTART&#45;&gt;restart</title>
<path fill="none" stroke="purple" d="M826,-1381.99C826,-1373.57 826,-1363.22 826,-1353.28"/>
<polygon fill="purple" stroke="purple" points="829.5,-1353.17 826,-1343.17 822.5,-1353.17 829.5,-1353.17"/>
</g>
<!-- pass -->
<g id="node41" class="node"><title>pass</title>
<polygon fill="none" stroke="black" points="250.5,-471 250.5,-549 421.5,-549 421.5,-471 250.5,-471"/>
<text text-anchor="middle" x="336" y="-532.4" font-family="Times Roman,serif" font-size="14.00">cnt_pass:</text>
<polyline fill="none" stroke="black" points="250.5,-523 421.5,-523 "/>
<text text-anchor="middle" x="303" y="-506.4" font-family="Times Roman,serif" font-size="14.00">vcl_pass{}</text>
<polyline fill="none" stroke="black" points="355.5,-497 355.5,-523 "/>
<text text-anchor="middle" x="388.5" y="-506.4" font-family="Times Roman,serif" font-size="14.00">req.*</text>
<polyline fill="none" stroke="black" points="250.5,-497 421.5,-497 "/>
<text text-anchor="middle" x="276" y="-480.4" font-family="Times Roman,serif" font-size="14.00">fetch</text>
<polyline fill="none" stroke="black" points="301.5,-471 301.5,-497 "/>
<text text-anchor="middle" x="329.5" y="-480.4" font-family="Times Roman,serif" font-size="14.00">synth</text>
<polyline fill="none" stroke="black" points="357.5,-471 357.5,-497 "/>
<text text-anchor="middle" x="389.5" y="-480.4" font-family="Times Roman,serif" font-size="14.00">restart</text>
</g>
<!-- recv&#45;&gt;pass -->
<g id="edge75" class="edge"><title>recv:pass&#45;&gt;pass</title>
<path fill="none" stroke="red" stroke-width="2" d="M670,-1173C670,-1126.33 670,-1114.67 670,-1068 670,-1068 670,-1068 670,-662 670,-609.208 530.017,-561.065 431.298,-533.677"/>
<polygon fill="red" stroke="red" points="432.149,-530.281 421.58,-531.011 430.297,-537.032 432.149,-530.281"/>
</g>
<!-- pipe -->
<g id="node52" class="node"><title>pipe</title>
<polygon fill="none" stroke="black" points="717.5,-1003 717.5,-1133 874.5,-1133 874.5,-1003 717.5,-1003"/>
<text text-anchor="middle" x="796" y="-1116.4" font-family="Times Roman,serif" font-size="14.00">cnt_pipe:</text>
<polyline fill="none" stroke="black" points="717.5,-1107 874.5,-1107 "/>
<text text-anchor="middle" x="796" y="-1090.4" font-family="Times Roman,serif" font-size="14.00">filter req.*&#45;&gt;bereq.*</text>
<polyline fill="none" stroke="black" points="717.5,-1081 874.5,-1081 "/>
<text text-anchor="middle" x="762" y="-1051.4" font-family="Times Roman,serif" font-size="14.00">vcl_pipe{}</text>
<polyline fill="none" stroke="black" points="806.5,-1029 806.5,-1081 "/>
<text text-anchor="middle" x="840.5" y="-1064.4" font-family="Times Roman,serif" font-size="14.00">req.*</text>
<polyline fill="none" stroke="black" points="806.5,-1055 874.5,-1055 "/>
<text text-anchor="middle" x="840.5" y="-1038.4" font-family="Times Roman,serif" font-size="14.00">bereq.*</text>
<polyline fill="none" stroke="black" points="717.5,-1029 874.5,-1029 "/>
<text text-anchor="middle" x="754" y="-1012.4" font-family="Times Roman,serif" font-size="14.00">pipe</text>
<polyline fill="none" stroke="black" points="790.5,-1003 790.5,-1029 "/>
<text text-anchor="middle" x="832.5" y="-1012.4" font-family="Times Roman,serif" font-size="14.00">synth</text>
</g>
<!-- recv&#45;&gt;pipe -->
<g id="edge73" class="edge"><title>recv:pipe&#45;&gt;pipe</title>
<path fill="none" stroke="orange" stroke-width="2" d="M716,-1173C716,-1162.23 718.695,-1151.88 723.095,-1142.15"/>
<polygon fill="orange" stroke="orange" points="726.329,-1143.52 727.804,-1133.03 720.108,-1140.31 726.329,-1143.52"/>
</g>
<!-- hash -->
<g id="node64" class="node"><title>hash</title>
<polygon fill="none" stroke="black" points="492.5,-1029 492.5,-1107 637.5,-1107 637.5,-1029 492.5,-1029"/>
<text text-anchor="middle" x="565" y="-1090.4" font-family="Times Roman,serif" font-size="14.00">cnt_recv:</text>
<polyline fill="none" stroke="black" points="492.5,-1081 637.5,-1081 "/>
<text text-anchor="middle" x="539.5" y="-1064.4" font-family="Times Roman,serif" font-size="14.00">vcl_hash{}</text>
<polyline fill="none" stroke="black" points="586.5,-1055 586.5,-1081 "/>
<text text-anchor="middle" x="612" y="-1064.4" font-family="Times Roman,serif" font-size="14.00">req.*</text>
<polyline fill="none" stroke="black" points="492.5,-1055 637.5,-1055 "/>
<text text-anchor="middle" x="565" y="-1038.4" font-family="Times Roman,serif" font-size="14.00">lookup</text>
</g>
<!-- recv&#45;&gt;hash -->
<g id="edge71" class="edge"><title>recv:hash&#45;&gt;hash</title>
<path fill="none" stroke="green" stroke-width="2" d="M565,-1173C565,-1154.87 565,-1134.97 565,-1117.42"/>
<polygon fill="green" stroke="green" points="568.5,-1117.39 565,-1107.39 561.5,-1117.39 568.5,-1117.39"/>
</g>
<!-- recv&#45;&gt;hash -->
<g id="edge81" class="edge"><title>recv:purge:s&#45;&gt;hash</title>
<path fill="none" stroke="purple" stroke-width="2" d="M618,-1173C618,-1153 610.244,-1132.94 600.666,-1115.79"/>
<polygon fill="purple" stroke="purple" points="603.629,-1113.92 595.523,-1107.1 597.605,-1117.49 603.629,-1113.92"/>
</g>
<!-- SYNTH -->
<g id="node6" class="node"><title>SYNTH</title>
<text text-anchor="middle" x="424" y="-336.4" font-family="Times Roman,serif" font-size="14.00">SYNTH</text>
</g>
<!-- synth -->
<g id="node19" class="node"><title>synth</title>
<polygon fill="none" stroke="black" points="292,-166 292,-270 450,-270 450,-166 292,-166"/>
<text text-anchor="middle" x="371" y="-253.4" font-family="Times Roman,serif" font-size="14.00">cnt_synth:</text>
<polyline fill="none" stroke="black" points="292,-244 450,-244 "/>
<text text-anchor="middle" x="342" y="-214.4" font-family="Times Roman,serif" font-size="14.00">vcl_synth{}</text>
<polyline fill="none" stroke="black" points="392,-192 392,-244 "/>
<text text-anchor="middle" x="421" y="-227.4" font-family="Times Roman,serif" font-size="14.00">req.*</text>
<polyline fill="none" stroke="black" points="392,-218 450,-218 "/>
<text text-anchor="middle" x="421" y="-201.4" font-family="Times Roman,serif" font-size="14.00">resp.*</text>
<polyline fill="none" stroke="black" points="292,-192 450,-192 "/>
<text text-anchor="middle" x="331" y="-175.4" font-family="Times Roman,serif" font-size="14.00">deliver</text>
<polyline fill="none" stroke="black" points="370,-166 370,-192 "/>
<text text-anchor="middle" x="410" y="-175.4" font-family="Times Roman,serif" font-size="14.00">restart</text>
</g>
<!-- SYNTH&#45;&gt;synth -->
<g id="edge18" class="edge"><title>SYNTH&#45;&gt;synth</title>
<path fill="none" stroke="purple" d="M416.18,-321.998C411.244,-310.636 404.548,-295.225 397.825,-279.749"/>
<polygon fill="purple" stroke="purple" points="400.846,-277.917 393.651,-270.14 394.425,-280.706 400.846,-277.917"/>
</g>
<!-- deliver -->
<g id="node9" class="node"><title>deliver</title>
<polygon fill="none" stroke="black" points="91.5,-153 91.5,-283 274.5,-283 274.5,-153 91.5,-153"/>
<text text-anchor="middle" x="183" y="-266.4" font-family="Times Roman,serif" font-size="14.00">cnt_deliver:</text>
<polyline fill="none" stroke="black" points="91.5,-257 274.5,-257 "/>
<text text-anchor="middle" x="183" y="-240.4" font-family="Times Roman,serif" font-size="14.00">Filter obj.&#45;&gt;resp.</text>
<polyline fill="none" stroke="black" points="91.5,-231 274.5,-231 "/>
<text text-anchor="middle" x="149.5" y="-201.4" font-family="Times Roman,serif" font-size="14.00">vcl_deliver{}</text>
<polyline fill="none" stroke="black" points="207.5,-179 207.5,-231 "/>
<text text-anchor="middle" x="241" y="-214.4" font-family="Times Roman,serif" font-size="14.00">req.*</text>
<polyline fill="none" stroke="black" points="207.5,-205 274.5,-205 "/>
<text text-anchor="middle" x="241" y="-188.4" font-family="Times Roman,serif" font-size="14.00">resp.*</text>
<polyline fill="none" stroke="black" points="91.5,-179 274.5,-179 "/>
<text text-anchor="middle" x="123.5" y="-162.4" font-family="Times Roman,serif" font-size="14.00">restart</text>
<polyline fill="none" stroke="black" points="155.5,-153 155.5,-179 "/>
<text text-anchor="middle" x="187" y="-162.4" font-family="Times Roman,serif" font-size="14.00">deliver</text>
<polyline fill="none" stroke="black" points="218.5,-153 218.5,-179 "/>
<text text-anchor="middle" x="246.5" y="-162.4" font-family="Times Roman,serif" font-size="14.00">synth</text>
</g>
<!-- V1D_Deliver -->
<g id="node11" class="node"><title>V1D_Deliver</title>
<ellipse fill="none" stroke="black" cx="247" cy="-95" rx="73.0388" ry="18.3848"/>
<text text-anchor="middle" x="247" y="-91.4" font-family="Times Roman,serif" font-size="14.00">V1D_Deliver</text>
</g>
<!-- deliver&#45;&gt;V1D_Deliver -->
<g id="edge7" class="edge"><title>deliver:deliver:s&#45;&gt;V1D_Deliver</title>
<path fill="none" stroke="green" stroke-width="2" d="M187,-153C179.758,-138.077 185.142,-125.774 195.338,-116.397"/>
<polygon fill="green" stroke="green" points="197.726,-118.975 203.5,-110.092 193.447,-113.435 197.726,-118.975"/>
</g>
<!-- deliver&#45;&gt;V1D_Deliver -->
<g id="edge9" class="edge"><title>deliver:deliver:s&#45;&gt;V1D_Deliver</title>
<path fill="none" stroke="red" stroke-width="2" d="M187,-153C187,-138.893 195.68,-127.127 206.436,-117.962"/>
<polygon fill="red" stroke="red" points="208.733,-120.612 214.542,-111.751 204.475,-115.055 208.733,-120.612"/>
</g>
<!-- deliver&#45;&gt;V1D_Deliver -->
<g id="edge11" class="edge"><title>deliver:deliver:s&#45;&gt;V1D_Deliver</title>
<path fill="none" stroke="blue" stroke-width="2" d="M187,-153C193.627,-139.345 205.947,-127.883 217.971,-118.85"/>
<polygon fill="blue" stroke="blue" points="220.074,-121.649 226.175,-112.988 216.004,-115.954 220.074,-121.649"/>
</g>
<!-- DONE -->
<g id="node17" class="node"><title>DONE</title>
<ellipse fill="none" stroke="black" cx="641" cy="-19" rx="41.2167" ry="18.3848"/>
<text text-anchor="middle" x="641" y="-15.4" font-family="Times Roman,serif" font-size="14.00">DONE</text>
</g>
<!-- V1D_Deliver&#45;&gt;DONE -->
<g id="edge15" class="edge"><title>V1D_Deliver&#45;&gt;DONE</title>
<path fill="none" stroke="black" d="M305.136,-83.7859C383.175,-68.7327 520.367,-42.2692 592.905,-28.2771"/>
<polygon fill="black" stroke="black" points="593.968,-31.6368 603.124,-26.3061 592.642,-24.7635 593.968,-31.6368"/>
</g>
<!-- stream -->
<g id="node14" class="node"><title>stream</title>
<ellipse fill="turquoise" stroke="turquoise" cx="519" cy="-218" rx="50.9117" ry="31.1127"/>
<text text-anchor="middle" x="519" y="-223.4" font-family="Times Roman,serif" font-size="14.00">stream?</text>
<text text-anchor="middle" x="519" y="-205.4" font-family="Times Roman,serif" font-size="14.00">body</text>
</g>
<!-- stream&#45;&gt;V1D_Deliver -->
<g id="edge13" class="edge"><title>stream&#45;&gt;V1D_Deliver</title>
<path fill="none" stroke="black" stroke-dasharray="1,5" d="M499.09,-189.437C488.565,-176.283 474.599,-161.517 459,-152 417.885,-126.916 365.703,-112.707 323.399,-104.749"/>
<polygon fill="black" stroke="black" points="323.888,-101.281 313.426,-102.953 322.647,-108.17 323.888,-101.281"/>
</g>
<!-- synth&#45;&gt;V1D_Deliver -->
<g id="edge20" class="edge"><title>synth:del:s&#45;&gt;V1D_Deliver</title>
<path fill="none" stroke="purple" d="M331,-166C331,-144.076 314.103,-127.536 295.466,-115.961"/>
<polygon fill="purple" stroke="purple" points="296.955,-112.78 286.54,-110.833 293.468,-118.849 296.955,-112.78"/>
</g>
<!-- see backend graph -->
<g id="node23" class="node"><title>see backend graph</title>
<text text-anchor="middle" x="304" y="-410.4" font-family="Times Roman,serif" font-size="14.00">see backend graph</text>
</g>
<!-- BGFETCH -->
<g id="node24" class="node"><title>BGFETCH</title>
<polygon fill="turquoise" stroke="turquoise" points="134,-432 52,-432 52,-396 134,-396 134,-432"/>
<text text-anchor="middle" x="93" y="-410.4" font-family="Times Roman,serif" font-size="14.00">BGFETCH</text>
</g>
<!-- FETCH -->
<g id="node25" class="node"><title>FETCH</title>
<polygon fill="turquoise" stroke="turquoise" points="214,-432 152,-432 152,-396 214,-396 214,-432"/>
<text text-anchor="middle" x="183" y="-410.4" font-family="Times Roman,serif" font-size="14.00">FETCH</text>
</g>
<!-- FETCH_DONE -->
<g id="node26" class="node"><title>FETCH_DONE</title>
<polygon fill="turquoise" stroke="turquoise" points="239,-358 127,-358 127,-322 239,-322 239,-358"/>
<text text-anchor="middle" x="183" y="-336.4" font-family="Times Roman,serif" font-size="14.00">FETCH_DONE</text>
</g>
<!-- FETCH&#45;&gt;FETCH_DONE -->
<g id="edge31" class="edge"><title>FETCH&#45;&gt;FETCH_DONE</title>
<path fill="none" stroke="black" stroke-dasharray="1,5" d="M183,-395.708C183,-387.464 183,-377.538 183,-368.362"/>
<polygon fill="black" stroke="black" points="186.5,-368.082 183,-358.082 179.5,-368.082 186.5,-368.082"/>
</g>
<!-- FETCH_FAIL -->
<g id="node27" class="node"><title>FETCH_FAIL</title>
<polygon fill="turquoise" stroke="turquoise" points="364,-358 266,-358 266,-322 364,-322 364,-358"/>
<text text-anchor="middle" x="315" y="-336.4" font-family="Times Roman,serif" font-size="14.00">FETCH_FAIL</text>
</g>
<!-- FETCH&#45;&gt;FETCH_FAIL -->
<g id="edge33" class="edge"><title>FETCH&#45;&gt;FETCH_FAIL</title>
<path fill="none" stroke="black" stroke-dasharray="1,5" d="M214.282,-396.463C232.052,-386.501 254.517,-373.907 273.718,-363.143"/>
<polygon fill="black" stroke="black" points="275.553,-366.127 282.564,-358.184 272.13,-360.021 275.553,-366.127"/>
</g>
<!-- FETCH_DONE&#45;&gt;deliver -->
<g id="edge27" class="edge"><title>FETCH_DONE&#45;&gt;deliver</title>
<path fill="none" stroke="red" stroke-width="2" d="M178.045,-321.998C177.217,-314.012 176.676,-304.025 176.421,-293.421"/>
<polygon fill="red" stroke="red" points="179.915,-293.056 176.264,-283.11 172.916,-293.162 179.915,-293.056"/>
</g>
<!-- FETCH_DONE&#45;&gt;deliver -->
<g id="edge29" class="edge"><title>FETCH_DONE&#45;&gt;deliver</title>
<path fill="none" stroke="blue" stroke-width="2" d="M187.955,-321.998C188.783,-314.012 189.324,-304.025 189.579,-293.421"/>
<polygon fill="blue" stroke="blue" points="193.084,-293.162 189.736,-283.11 186.085,-293.056 193.084,-293.162"/>
</g>
<!-- FETCH_FAIL&#45;&gt;synth -->
<g id="edge25" class="edge"><title>FETCH_FAIL&#45;&gt;synth</title>
<path fill="none" stroke="purple" d="M323.263,-321.998C328.528,-310.529 335.686,-294.933 342.857,-279.311"/>
<polygon fill="purple" stroke="purple" points="346.076,-280.688 347.067,-270.14 339.714,-277.768 346.076,-280.688"/>
</g>
<!-- lookup2 -->
<g id="node28" class="node"><title>lookup2</title>
<polygon fill="none" stroke="black" points="-0.5,-741 -0.5,-845 276.5,-845 276.5,-741 -0.5,-741"/>
<text text-anchor="middle" x="138" y="-828.4" font-family="Times Roman,serif" font-size="14.00">cnt_lookup:</text>
<polyline fill="none" stroke="black" points="-0.5,-819 276.5,-819 "/>
<text text-anchor="middle" x="76" y="-789.4" font-family="Times Roman,serif" font-size="14.00">vcl_hit{}</text>
<polyline fill="none" stroke="black" points="152.5,-767 152.5,-819 "/>
<text text-anchor="middle" x="214.5" y="-802.4" font-family="Times Roman,serif" font-size="14.00">req.*</text>
<polyline fill="none" stroke="black" points="152.5,-793 276.5,-793 "/>
<text text-anchor="middle" x="214.5" y="-776.4" font-family="Times Roman,serif" font-size="14.00">obj.*</text>
<polyline fill="none" stroke="black" points="-0.5,-767 276.5,-767 "/>
<text text-anchor="middle" x="31" y="-750.4" font-family="Times Roman,serif" font-size="14.00">deliver</text>
<polyline fill="none" stroke="black" points="62.5,-741 62.5,-767 "/>
<text text-anchor="middle" x="86" y="-750.4" font-family="Times Roman,serif" font-size="14.00">miss</text>
<polyline fill="none" stroke="black" points="109.5,-741 109.5,-767 "/>
<text text-anchor="middle" x="141.5" y="-750.4" font-family="Times Roman,serif" font-size="14.00">restart</text>
<polyline fill="none" stroke="black" points="173.5,-741 173.5,-767 "/>
<text text-anchor="middle" x="201.5" y="-750.4" font-family="Times Roman,serif" font-size="14.00">synth</text>
<polyline fill="none" stroke="black" points="229.5,-741 229.5,-767 "/>
<text text-anchor="middle" x="253" y="-750.4" font-family="Times Roman,serif" font-size="14.00">pass</text>
</g>
<!-- lookup2&#45;&gt;deliver -->
<g id="edge44" class="edge"><title>lookup2:deliver:s&#45;&gt;deliver:n</title>
<path fill="none" stroke="green" stroke-width="2" d="M31,-741C31,-705.751 24,-697.249 24,-662 24,-662 24,-662 24,-340 24,-326.432 28.928,-321.843 40,-314 89.9576,-278.612 172.588,-340.014 182.099,-293.073"/>
<polygon fill="green" stroke="green" points="185.595,-293.272 183,-283 178.623,-292.648 185.595,-293.272"/>
</g>
<!-- lookup2&#45;&gt;BGFETCH -->
<g id="edge23" class="edge"><title>lookup2:deliver:s&#45;&gt;BGFETCH</title>
<path fill="none" stroke="green" d="M31,-741C31,-732.001 35.7405,-730.711 38,-722 55.3924,-654.948 49.8288,-636.193 62,-568 69.8443,-524.05 80.3323,-473.337 86.8755,-442.482"/>
<polygon fill="green" stroke="green" points="90.3543,-442.95 89.0146,-432.44 83.5079,-441.491 90.3543,-442.95"/>
<text text-anchor="middle" x="106.5" y="-591.4" font-family="Times Roman,serif" font-size="14.00">parallel</text>
<text text-anchor="middle" x="106.5" y="-573.4" font-family="Times Roman,serif" font-size="14.00">if obj expired</text>
</g>
<!-- miss -->
<g id="node39" class="node"><title>miss</title>
<polygon fill="none" stroke="black" points="90,-623 90,-701 308,-701 308,-623 90,-623"/>
<text text-anchor="middle" x="199" y="-684.4" font-family="Times Roman,serif" font-size="14.00">cnt_miss:</text>
<polyline fill="none" stroke="black" points="90,-675 308,-675 "/>
<text text-anchor="middle" x="154.5" y="-658.4" font-family="Times Roman,serif" font-size="14.00">vcl_miss{}</text>
<polyline fill="none" stroke="black" points="219,-649 219,-675 "/>
<text text-anchor="middle" x="263.5" y="-658.4" font-family="Times Roman,serif" font-size="14.00">req.*</text>
<polyline fill="none" stroke="black" points="90,-649 308,-649 "/>
<text text-anchor="middle" x="115.5" y="-632.4" font-family="Times Roman,serif" font-size="14.00">fetch</text>
<polyline fill="none" stroke="black" points="141,-623 141,-649 "/>
<text text-anchor="middle" x="169" y="-632.4" font-family="Times Roman,serif" font-size="14.00">synth</text>
<polyline fill="none" stroke="black" points="197,-623 197,-649 "/>
<text text-anchor="middle" x="229" y="-632.4" font-family="Times Roman,serif" font-size="14.00">restart</text>
<polyline fill="none" stroke="black" points="261,-623 261,-649 "/>
<text text-anchor="middle" x="284.5" y="-632.4" font-family="Times Roman,serif" font-size="14.00">pass</text>
</g>
<!-- lookup2&#45;&gt;miss -->
<g id="edge46" class="edge"><title>lookup2:miss:s&#45;&gt;miss</title>
<path fill="none" stroke="blue" stroke-width="2" d="M86,-741C86,-728.377 90.795,-717.602 98.4094,-708.45"/>
<polygon fill="blue" stroke="blue" points="101.027,-710.777 105.425,-701.139 95.9762,-705.931 101.027,-710.777"/>
</g>
<!-- lookup2&#45;&gt;pass -->
<g id="edge48" class="edge"><title>lookup2:pass:s&#45;&gt;pass</title>
<path fill="none" stroke="red" stroke-width="2" d="M253,-741C253,-707.69 299.276,-730.203 317,-702 343.782,-659.384 345.67,-600.645 342.66,-559.394"/>
<polygon fill="red" stroke="red" points="346.137,-558.971 341.802,-549.304 339.162,-559.565 346.137,-558.971"/>
</g>
<!-- lookup -->
<g id="node36" class="node"><title>lookup</title>
<polygon fill="none" stroke="grey" points="117,-885 117,-963 371,-963 371,-885 117,-885"/>
<text text-anchor="middle" x="244" y="-946.4" font-family="Times Roman,serif" font-size="14.00" fill="grey">cnt_lookup:</text>
<polyline fill="none" stroke="grey" points="117,-937 371,-937 "/>
<text text-anchor="middle" x="244" y="-920.4" font-family="Times Roman,serif" font-size="14.00" fill="grey">hash lookup</text>
<polyline fill="none" stroke="grey" points="117,-911 371,-911 "/>
<text text-anchor="middle" x="138.5" y="-894.4" font-family="Times Roman,serif" font-size="14.00" fill="grey">hit?</text>
<polyline fill="none" stroke="grey" points="160,-885 160,-911 "/>
<text text-anchor="middle" x="187" y="-894.4" font-family="Times Roman,serif" font-size="14.00" fill="grey">miss?</text>
<polyline fill="none" stroke="grey" points="214,-885 214,-911 "/>
<text text-anchor="middle" x="264.5" y="-894.4" font-family="Times Roman,serif" font-size="14.00" fill="grey">hit&#45;for&#45;pass?</text>
<polyline fill="none" stroke="grey" points="315,-885 315,-911 "/>
<text text-anchor="middle" x="343" y="-894.4" font-family="Times Roman,serif" font-size="14.00" fill="grey">busy?</text>
</g>
<!-- lookup&#45;&gt;lookup2 -->
<g id="edge42" class="edge"><title>lookup:h:s&#45;&gt;lookup2</title>
<path fill="none" stroke="green" stroke-width="2" d="M138,-885C138,-875.398 138,-865.232 138,-855.297"/>
<polygon fill="green" stroke="green" points="141.5,-855.06 138,-845.06 134.5,-855.06 141.5,-855.06"/>
</g>
<!-- lookup&#45;&gt;lookup -->
<g id="edge36" class="edge"><title>lookup:busy:e&#45;&gt;lookup:top:e</title>
<path fill="none" stroke="grey" d="M371,-898C377,-883.5 389,-883.5 389,-924 389,-953.109 382.801,-961.296 377.086,-958.215"/>
<polygon fill="grey" stroke="grey" points="379.765,-955.952 371,-950 374.14,-960.119 379.765,-955.952"/>
<text text-anchor="middle" x="430.5" y="-920.4" font-family="Times Roman,serif" font-size="14.00" fill="grey">(waitinglist)</text>
</g>
<!-- lookup&#45;&gt;miss -->
<g id="edge38" class="edge"><title>lookup:miss:s&#45;&gt;miss</title>
<path fill="none" stroke="blue" stroke-width="2" d="M187,-885C187,-838.122 258.685,-884.795 285,-846 311.446,-807.012 304.084,-783.073 285,-740 279.846,-728.367 272.004,-717.728 263.114,-708.301"/>
<polygon fill="blue" stroke="blue" points="265.346,-705.583 255.791,-701.004 260.405,-710.541 265.346,-705.583"/>
</g>
<!-- lookup&#45;&gt;pass -->
<g id="edge40" class="edge"><title>lookup:hfp:s&#45;&gt;pass</title>
<path fill="none" stroke="red" stroke-width="2" d="M265,-885C265,-859.199 294.745,-868.135 308,-846 364.425,-751.775 350.214,-713.551 358,-604 359.134,-588.04 360.884,-583.738 358,-568 357.445,-564.973 356.74,-561.899 355.925,-558.826"/>
<polygon fill="red" stroke="red" points="359.225,-557.646 352.998,-549.075 352.521,-559.659 359.225,-557.646"/>
</g>
<!-- miss&#45;&gt;FETCH -->
<g id="edge51" class="edge"><title>miss:fetch:s&#45;&gt;FETCH</title>
<path fill="none" stroke="blue" stroke-width="2" d="M115,-623C115,-603.319 143.296,-619.824 155,-604 190.507,-555.994 190.039,-482.175 186.552,-442.15"/>
<polygon fill="blue" stroke="blue" points="190.019,-441.641 185.542,-432.038 183.053,-442.337 190.019,-441.641"/>
</g>
<!-- miss&#45;&gt;pass -->
<g id="edge53" class="edge"><title>miss:pass:s&#45;&gt;pass</title>
<path fill="none" stroke="red" stroke-width="2" d="M285,-623C285,-600.424 293.561,-577.378 303.669,-558.038"/>
<polygon fill="red" stroke="red" points="306.808,-559.593 308.559,-549.144 300.674,-556.22 306.808,-559.593"/>
</g>
<!-- pass&#45;&gt;FETCH -->
<g id="edge56" class="edge"><title>pass:fetch:s&#45;&gt;FETCH</title>
<path fill="none" stroke="red" stroke-width="2" d="M276,-471C276,-443.711 246.224,-454.329 223,-440 221.722,-439.212 220.425,-438.405 219.118,-437.586"/>
<polygon fill="red" stroke="red" points="220.752,-434.478 210.434,-432.074 217.001,-440.388 220.752,-434.478"/>
</g>
<!-- pipe_do -->
<g id="node53" class="node"><title>pipe_do</title>
<ellipse fill="none" stroke="black" cx="814" cy="-924" rx="115.966" ry="31.1127"/>
<text text-anchor="middle" x="814" y="-929.4" font-family="Times Roman,serif" font-size="14.00">send bereq,</text>
<text text-anchor="middle" x="814" y="-911.4" font-family="Times Roman,serif" font-size="14.00">copy bytes until close</text>
</g>
<!-- pipe&#45;&gt;pipe_do -->
<g id="edge59" class="edge"><title>pipe:pipe&#45;&gt;pipe_do</title>
<path fill="none" stroke="orange" stroke-width="2" d="M754,-1003C754,-987.601 761.32,-973.321 770.846,-961.258"/>
<polygon fill="orange" stroke="orange" points="773.51,-963.528 777.369,-953.661 768.199,-958.967 773.51,-963.528"/>
</g>
<!-- pipe_do&#45;&gt;DONE -->
<g id="edge61" class="edge"><title>pipe_do&#45;&gt;DONE</title>
<path fill="none" stroke="orange" stroke-width="2" d="M793.812,-893.374C778.834,-867.678 761,-829.433 761,-793 761,-793 761,-793 761,-95 761,-59.0887 722.169,-39.4409 688.686,-29.1741"/>
<polygon fill="orange" stroke="orange" points="689.545,-25.7797 678.969,-26.4013 687.624,-32.511 689.545,-25.7797"/>
</g>
<!-- restart&#45;&gt;recv -->
<g id="edge66" class="edge"><title>restart:ok:s&#45;&gt;recv</title>
<path fill="none" stroke="black" d="M768,-1291C768,-1278.65 763.258,-1267.95 755.83,-1258.75"/>
<polygon fill="black" stroke="black" points="758.365,-1256.34 749.003,-1251.38 753.229,-1261.09 758.365,-1256.34"/>
</g>
<!-- err_restart -->
<g id="node61" class="node"><title>err_restart</title>
<text text-anchor="middle" x="847" y="-1208.4" font-family="Times Roman,serif" font-size="14.00">SYNTH</text>
</g>
<!-- restart&#45;&gt;err_restart -->
<g id="edge68" class="edge"><title>restart:max:s&#45;&gt;err_restart</title>
<path fill="none" stroke="purple" d="M847,-1291C847,-1274.22 847,-1255.45 847,-1240.41"/>
<polygon fill="purple" stroke="purple" points="850.5,-1240.2 847,-1230.2 843.5,-1240.2 850.5,-1240.2"/>
</g>
<!-- hash&#45;&gt;lookup -->
<g id="edge77" class="edge"><title>hash:lookup:w&#45;&gt;lookup</title>
<path fill="none" stroke="green" stroke-width="2" d="M491,-1042C420.613,-1042 348.996,-1002.5 301.131,-969.212"/>
<polygon fill="green" stroke="green" points="302.956,-966.215 292.772,-963.292 298.91,-971.928 302.956,-966.215"/>
</g>
<!-- purge -->
<g id="node69" class="node"><title>purge</title>
<polygon fill="none" stroke="black" points="490,-885 490,-963 642,-963 642,-885 490,-885"/>
<text text-anchor="middle" x="566" y="-946.4" font-family="Times Roman,serif" font-size="14.00">cnt_purge:</text>
<polyline fill="none" stroke="black" points="490,-937 642,-937 "/>
<text text-anchor="middle" x="540.5" y="-920.4" font-family="Times Roman,serif" font-size="14.00">vcl_purge{}</text>
<polyline fill="none" stroke="black" points="591,-911 591,-937 "/>
<text text-anchor="middle" x="616.5" y="-920.4" font-family="Times Roman,serif" font-size="14.00">req.*</text>
<polyline fill="none" stroke="black" points="490,-911 642,-911 "/>
<text text-anchor="middle" x="526" y="-894.4" font-family="Times Roman,serif" font-size="14.00">synth</text>
<polyline fill="none" stroke="black" points="562,-885 562,-911 "/>
<text text-anchor="middle" x="602" y="-894.4" font-family="Times Roman,serif" font-size="14.00">restart</text>
</g>
<!-- hash&#45;&gt;purge -->
<g id="edge79" class="edge"><title>hash:lookup:s&#45;&gt;purge:top:n</title>
<path fill="none" stroke="purple" stroke-width="2" d="M565,-1029C565,-1003.33 565.766,-994.512 565.957,-973.056"/>
<polygon fill="purple" stroke="purple" points="569.457,-973.015 566,-963 562.457,-972.985 569.457,-973.015"/>
</g>
</g>
</svg>
