<?xml version="1.0" encoding="UTF-8" standalone="no"?>
<!DOCTYPE svg PUBLIC "-//W3C//DTD SVG 1.1//EN"
 "http://www.w3.org/Graphics/SVG/1.1/DTD/svg11.dtd">
<!-- Generated by graphviz version 2.26.3 (20100126.1600)
 -->
<!-- Title: cache_fetch Pages: 1 -->
<svg width="956pt" height="796pt"
 viewBox="36.00 36.00 920.00 760.00" xmlns="http://www.w3.org/2000/svg" xmlns:xlink="http://www.w3.org/1999/xlink">
<g id="graph1" class="graph" transform="scale(1 1) rotate(0) translate(40 756)">
<title>cache_fetch</title>
<polygon fill="white" stroke="white" points="-4,5 -4,-720 881,-720 881,5 -4,5"/>
<g id="graph2" class="cluster"><title>cluster_backend</title>
<polygon fill="aliceblue" stroke="aliceblue" points="8,-8 8,-708 868,-708 868,-8 8,-8"/>
</g>
<!-- RETRY -->
<g id="node2" class="node"><title>RETRY</title>
<text text-anchor="middle" x="456" y="-678.4" font-family="Times Roman,serif" font-size="14.00">RETRY</text>
</g>
<!-- v_b_f -->
<g id="node6" class="node"><title>v_b_f</title>
<polygon fill="none" stroke="black" points="207.5,-547 207.5,-625 434.5,-625 434.5,-547 207.5,-547"/>
<text text-anchor="middle" x="321" y="-608.4" font-family="Times Roman,serif" font-size="14.00">vbf_stp_startfetch:</text>
<polyline fill="none" stroke="black" points="207.5,-599 434.5,-599 "/>
<text text-anchor="middle" x="287" y="-582.4" font-family="Times Roman,serif" font-size="14.00">vcl_backend_fetch{}</text>
<polyline fill="none" stroke="black" points="366.5,-573 366.5,-599 "/>
<text text-anchor="middle" x="400.5" y="-582.4" font-family="Times Roman,serif" font-size="14.00">bereq.*</text>
<polyline fill="none" stroke="black" points="207.5,-573 434.5,-573 "/>
<text text-anchor="middle" x="270.5" y="-556.4" font-family="Times Roman,serif" font-size="14.00">abandon</text>
<polyline fill="none" stroke="black" points="333.5,-547 333.5,-573 "/>
<text text-anchor="middle" x="384" y="-556.4" font-family="Times Roman,serif" font-size="14.00">fetch</text>
</g>
<!-- RETRY&#45;&gt;v_b_f -->
<g id="edge9" class="edge"><title>RETRY&#45;&gt;v_b_f</title>
<path fill="none" stroke="purple" d="M430.608,-663.943C417.469,-654.6 400.787,-642.737 384.425,-631.102"/>
<polygon fill="purple" stroke="purple" points="386.097,-627.996 375.919,-625.053 382.04,-633.701 386.097,-627.996"/>
</g>
<!-- v_b_f_BGFETCH -->
<g id="node3" class="node"><title>v_b_f_BGFETCH</title>
<polygon fill="turquoise" stroke="turquoise" points="407,-700 325,-700 325,-664 407,-664 407,-700"/>
<text text-anchor="middle" x="366" y="-678.4" font-family="Times Roman,serif" font-size="14.00">BGFETCH</text>
</g>
<!-- v_b_f_BGFETCH&#45;&gt;v_b_f -->
<g id="edge3" class="edge"><title>v_b_f_BGFETCH&#45;&gt;v_b_f</title>
<path fill="none" stroke="green" stroke-width="2" d="M357.536,-663.943C353.558,-655.457 348.606,-644.893 343.645,-634.308"/>
<polygon fill="green" stroke="green" points="346.72,-632.622 339.306,-625.053 340.382,-635.594 346.72,-632.622"/>
</g>
<!-- v_b_f_FETCH -->
<g id="node4" class="node"><title>v_b_f_FETCH</title>
<polygon fill="turquoise" stroke="turquoise" points="307,-700 245,-700 245,-664 307,-664 307,-700"/>
<text text-anchor="middle" x="276" y="-678.4" font-family="Times Roman,serif" font-size="14.00">FETCH</text>
</g>
<!-- v_b_f_FETCH&#45;&gt;v_b_f -->
<g id="edge5" class="edge"><title>v_b_f_FETCH&#45;&gt;v_b_f</title>
<path fill="none" stroke="blue" stroke-width="2" d="M279.053,-663.943C282.147,-655.457 286.653,-644.893 291.606,-634.308"/>
<polygon fill="blue" stroke="blue" points="294.876,-635.583 296.049,-625.053 288.566,-632.553 294.876,-635.583"/>
</g>
<!-- v_b_f_FETCH&#45;&gt;v_b_f -->
<g id="edge7" class="edge"><title>v_b_f_FETCH&#45;&gt;v_b_f</title>
<path fill="none" stroke="red" stroke-width="2" d="M289.876,-663.943C294.737,-655.457 300.135,-644.893 305.105,-634.308"/>
<polygon fill="red" stroke="red" points="308.362,-635.603 309.338,-625.053 301.996,-632.691 308.362,-635.603"/>
</g>
<!-- v_b_hdrs -->
<g id="node11" class="node"><title>v_b_hdrs</title>
<ellipse fill="none" stroke="black" cx="384" cy="-477" rx="118.087" ry="31.1127"/>
<text text-anchor="middle" x="384" y="-482.4" font-family="Times Roman,serif" font-size="14.00">send bereq,</text>
<text text-anchor="middle" x="384" y="-464.4" font-family="Times Roman,serif" font-size="14.00">read beresp (headers)</text>
</g>
<!-- v_b_f&#45;&gt;v_b_hdrs -->
<g id="edge11" class="edge"><title>v_b_f:fetch:s&#45;&gt;v_b_hdrs</title>
<path fill="none" stroke="black" stroke-width="2" d="M384,-547C384,-537.629 384,-527.552 384,-518.046"/>
<polygon fill="black" stroke="black" points="387.5,-518.013 384,-508.013 380.5,-518.013 387.5,-518.013"/>
</g>
<!-- v_b_r -->
<g id="node13" class="node"><title>v_b_r</title>
<polygon fill="none" stroke="black" points="388.5,-277 388.5,-407 671.5,-407 671.5,-277 388.5,-277"/>
<text text-anchor="middle" x="530" y="-390.4" font-family="Times Roman,serif" font-size="14.00">vbf_stp_startfetch:</text>
<polyline fill="none" stroke="black" points="388.5,-381 671.5,-381 "/>
<text text-anchor="middle" x="487" y="-351.4" font-family="Times Roman,serif" font-size="14.00">vcl_backend_response{}</text>
<polyline fill="none" stroke="black" points="585.5,-329 585.5,-381 "/>
<text text-anchor="middle" x="628.5" y="-364.4" font-family="Times Roman,serif" font-size="14.00">bereq.*</text>
<polyline fill="none" stroke="black" points="585.5,-355 671.5,-355 "/>
<text text-anchor="middle" x="628.5" y="-338.4" font-family="Times Roman,serif" font-size="14.00">beresp.*</text>
<polyline fill="none" stroke="black" points="388.5,-329 671.5,-329 "/>
<text text-anchor="middle" x="435.5" y="-312.4" font-family="Times Roman,serif" font-size="14.00">retry</text>
<polyline fill="none" stroke="black" points="388.5,-303 482.5,-303 "/>
<text text-anchor="middle" x="415" y="-286.4" font-family="Times Roman,serif" font-size="14.00">max?</text>
<polyline fill="none" stroke="black" points="441.5,-277 441.5,-303 "/>
<text text-anchor="middle" x="462" y="-286.4" font-family="Times Roman,serif" font-size="14.00">ok?</text>
<polyline fill="none" stroke="black" points="482.5,-277 482.5,-329 "/>
<text text-anchor="middle" x="520.5" y="-299.4" font-family="Times Roman,serif" font-size="14.00">abandon</text>
<polyline fill="none" stroke="black" points="558.5,-277 558.5,-329 "/>
<text text-anchor="middle" x="615" y="-312.4" font-family="Times Roman,serif" font-size="14.00">deliver</text>
<polyline fill="none" stroke="black" points="558.5,-303 671.5,-303 "/>
<text text-anchor="middle" x="584" y="-286.4" font-family="Times Roman,serif" font-size="14.00">304?</text>
<polyline fill="none" stroke="black" points="609.5,-277 609.5,-303 "/>
<text text-anchor="middle" x="640.5" y="-286.4" font-family="Times Roman,serif" font-size="14.00">other?</text>
</g>
<!-- v_b_hdrs&#45;&gt;v_b_r -->
<g id="edge13" class="edge"><title>v_b_hdrs&#45;&gt;v_b_r</title>
<path fill="none" stroke="black" stroke-width="2" d="M416.402,-447.039C427.077,-437.169 439.449,-425.729 452.02,-414.105"/>
<polygon fill="black" stroke="black" points="454.466,-416.61 459.432,-407.251 449.714,-411.47 454.466,-416.61"/>
</g>
<!-- v_b_e -->
<g id="node15" class="node"><title>v_b_e</title>
<polygon fill="none" stroke="black" points="181.5,-107 181.5,-237 414.5,-237 414.5,-107 181.5,-107"/>
<text text-anchor="middle" x="298" y="-220.4" font-family="Times Roman,serif" font-size="14.00">vbf_stp_error:</text>
<polyline fill="none" stroke="black" points="181.5,-211 414.5,-211 "/>
<text text-anchor="middle" x="261" y="-181.4" font-family="Times Roman,serif" font-size="14.00">vcl_backend_error{}</text>
<polyline fill="none" stroke="black" points="340.5,-159 340.5,-211 "/>
<text text-anchor="middle" x="377.5" y="-194.4" font-family="Times Roman,serif" font-size="14.00">bereq.*</text>
<polyline fill="none" stroke="black" points="340.5,-185 414.5,-185 "/>
<text text-anchor="middle" x="377.5" y="-168.4" font-family="Times Roman,serif" font-size="14.00">beresp.*</text>
<polyline fill="none" stroke="black" points="181.5,-159 414.5,-159 "/>
<text text-anchor="middle" x="228.5" y="-142.4" font-family="Times Roman,serif" font-size="14.00">retry</text>
<polyline fill="none" stroke="black" points="181.5,-133 275.5,-133 "/>
<text text-anchor="middle" x="208" y="-116.4" font-family="Times Roman,serif" font-size="14.00">max?</text>
<polyline fill="none" stroke="black" points="234.5,-107 234.5,-133 "/>
<text text-anchor="middle" x="255" y="-116.4" font-family="Times Roman,serif" font-size="14.00">ok?</text>
<polyline fill="none" stroke="black" points="275.5,-107 275.5,-159 "/>
<text text-anchor="middle" x="313.5" y="-129.4" font-family="Times Roman,serif" font-size="14.00">abandon</text>
<polyline fill="none" stroke="black" points="351.5,-107 351.5,-159 "/>
<text text-anchor="middle" x="383" y="-129.4" font-family="Times Roman,serif" font-size="14.00">deliver</text>
</g>
<!-- v_b_hdrs&#45;&gt;v_b_e -->
<g id="edge15" class="edge"><title>v_b_hdrs&#45;&gt;v_b_e</title>
<path fill="none" stroke="black" d="M375.281,-446.077C362.202,-399.692 337.116,-310.726 319.069,-246.721"/>
<polygon fill="black" stroke="black" points="322.43,-245.745 316.348,-237.071 315.693,-247.645 322.43,-245.745"/>
</g>
<!-- v_b_r&#45;&gt;v_b_e -->
<g id="edge19" class="edge"><title>v_b_r:max&#45;&gt;v_b_e</title>
<path fill="none" stroke="black" d="M387,-290C359.805,-290 339.873,-269.775 325.851,-246.072"/>
<polygon fill="black" stroke="black" points="328.854,-244.269 320.951,-237.212 322.729,-247.657 328.854,-244.269"/>
</g>
<!-- v_b_r_retry -->
<g id="node17" class="node"><title>v_b_r_retry</title>
<text text-anchor="middle" x="463" y="-168.4" font-family="Times Roman,serif" font-size="14.00">RETRY</text>
</g>
<!-- v_b_r&#45;&gt;v_b_r_retry -->
<g id="edge17" class="edge"><title>v_b_r:retry&#45;&gt;v_b_r_retry</title>
<path fill="none" stroke="purple" d="M462,-277C462,-251.075 462.309,-221.551 462.583,-200.427"/>
<polygon fill="purple" stroke="purple" points="466.085,-200.256 462.721,-190.209 459.086,-200.161 466.085,-200.256"/>
</g>
<!-- vbf_stp_condfetch -->
<g id="node20" class="node"><title>vbf_stp_condfetch</title>
<polygon fill="none" stroke="grey" points="511.5,-120 511.5,-224 656.5,-224 656.5,-120 511.5,-120"/>
<text text-anchor="middle" x="584" y="-207.4" font-family="Times Roman,serif" font-size="14.00" fill="grey">vbf_stp_condfetch:</text>
<polyline fill="none" stroke="grey" points="511.5,-198 656.5,-198 "/>
<text text-anchor="middle" x="584" y="-181.4" font-family="Times Roman,serif" font-size="14.00" fill="grey">copy obj attr</text>
<polyline fill="none" stroke="grey" points="511.5,-172 656.5,-172 "/>
<text text-anchor="middle" x="584" y="-155.4" font-family="Times Roman,serif" font-size="14.00" fill="grey">steal body</text>
<polyline fill="none" stroke="grey" points="511.5,-146 656.5,-146 "/>
<text text-anchor="middle" x="559" y="-129.4" font-family="Times Roman,serif" font-size="14.00" fill="grey">fetch_fail?</text>
<polyline fill="none" stroke="grey" points="606.5,-120 606.5,-146 "/>
<text text-anchor="middle" x="631.5" y="-129.4" font-family="Times Roman,serif" font-size="14.00" fill="grey">ok?</text>
</g>
<!-- v_b_r&#45;&gt;vbf_stp_condfetch -->
<g id="edge21" class="edge"><title>v_b_r:fetch_304:s&#45;&gt;vbf_stp_condfetch</title>
<path fill="none" stroke="black" d="M584,-277C584,-263.138 584,-248.247 584,-234.16"/>
<polygon fill="black" stroke="black" points="587.5,-234.072 584,-224.072 580.5,-234.072 587.5,-234.072"/>
</g>
<!-- vbf_stp_fetch -->
<g id="node22" class="node"><title>vbf_stp_fetch</title>
<polygon fill="none" stroke="grey" points="674,-120 674,-224 860,-224 860,-120 674,-120"/>
<text text-anchor="middle" x="767" y="-207.4" font-family="Times Roman,serif" font-size="14.00" fill="grey">vbf_stp_fetch:</text>
<polyline fill="none" stroke="grey" points="674,-198 860,-198 "/>
<text text-anchor="middle" x="767" y="-181.4" font-family="Times Roman,serif" font-size="14.00" fill="grey">setup VFPs</text>
<polyline fill="none" stroke="grey" points="674,-172 860,-172 "/>
<text text-anchor="middle" x="767" y="-155.4" font-family="Times Roman,serif" font-size="14.00" fill="grey">fetch</text>
<polyline fill="none" stroke="grey" points="674,-146 860,-146 "/>
<text text-anchor="middle" x="717" y="-129.4" font-family="Times Roman,serif" font-size="14.00" fill="grey">fetch_fail?</text>
<polyline fill="none" stroke="grey" points="760,-120 760,-146 "/>
<text text-anchor="middle" x="789.5" y="-129.4" font-family="Times Roman,serif" font-size="14.00" fill="grey">error?</text>
<polyline fill="none" stroke="grey" points="819,-120 819,-146 "/>
<text text-anchor="middle" x="839.5" y="-129.4" font-family="Times Roman,serif" font-size="14.00" fill="grey">ok?</text>
</g>
<!-- v_b_r&#45;&gt;vbf_stp_fetch -->
<g id="edge23" class="edge"><title>v_b_r:non_304:s&#45;&gt;vbf_stp_fetch</title>
<path fill="none" stroke="black" d="M641,-277C641,-264.06 656.882,-247.073 677.369,-230.544"/>
<polygon fill="black" stroke="black" points="679.705,-233.16 685.423,-224.241 675.391,-227.648 679.705,-233.16"/>
</g>
<!-- FETCH_DONE -->
<g id="node24" class="node"><title>FETCH_DONE</title>
<polygon fill="turquoise" stroke="turquoise" points="688,-52 576,-52 576,-16 688,-16 688,-52"/>
<text text-anchor="middle" x="632" y="-30.4" font-family="Times Roman,serif" font-size="14.00">FETCH_DONE</text>
</g>
<!-- v_b_e&#45;&gt;FETCH_DONE -->
<g id="edge31" class="edge"><title>v_b_e:deliver&#45;&gt;FETCH_DONE</title>
<path fill="none" stroke="black" d="M416,-133C428.397,-133 414.755,-115.258 423,-106 442.372,-84.2468 512.259,-62.9752 565.94,-49.2629"/>
<polygon fill="black" stroke="black" points="566.916,-52.6266 575.759,-46.792 565.207,-45.8382 566.916,-52.6266"/>
<text text-anchor="middle" x="547" y="-75.4" font-family="Times Roman,serif" font-size="14.00">&quot;backend synth&quot;</text>
</g>
<!-- FETCH_FAIL -->
<g id="node28" class="node"><title>FETCH_FAIL</title>
<polygon fill="turquoise" stroke="turquoise" points="175,-52 77,-52 77,-16 175,-16 175,-52"/>
<text text-anchor="middle" x="126" y="-30.4" font-family="Times Roman,serif" font-size="14.00">FETCH_FAIL</text>
</g>
<!-- v_b_e&#45;&gt;FETCH_FAIL -->
<g id="edge35" class="edge"><title>v_b_e:max:s&#45;&gt;FETCH_FAIL</title>
<path fill="none" stroke="black" d="M208,-107C208,-86.0339 192.86,-69.6074 175.591,-57.6904"/>
<polygon fill="black" stroke="black" points="177.312,-54.636 167,-52.2023 173.543,-60.5352 177.312,-54.636"/>
</g>
<!-- v_b_e_retry -->
<g id="node31" class="node"><title>v_b_e_retry</title>
<text text-anchor="middle" x="255" y="-30.4" font-family="Times Roman,serif" font-size="14.00">RETRY</text>
</g>
<!-- v_b_e&#45;&gt;v_b_e_retry -->
<g id="edge33" class="edge"><title>v_b_e:retry&#45;&gt;v_b_e_retry</title>
<path fill="none" stroke="purple" d="M255,-107C255,-92.2996 255,-75.934 255,-62.4302"/>
<polygon fill="purple" stroke="purple" points="258.5,-62.3003 255,-52.3003 251.5,-62.3004 258.5,-62.3003"/>
</g>
<!-- vbf_stp_condfetch&#45;&gt;FETCH_DONE -->
<g id="edge27" class="edge"><title>vbf_stp_condfetch:ok:s&#45;&gt;FETCH_DONE</title>
<path fill="none" stroke="black" d="M632,-120C632,-100.771 632,-79.1237 632,-62.358"/>
<polygon fill="black" stroke="black" points="635.5,-62.1198 632,-52.1199 628.5,-62.1199 635.5,-62.1198"/>
</g>
<!-- vbf_stp_fetch&#45;&gt;FETCH_DONE -->
<g id="edge25" class="edge"><title>vbf_stp_fetch:ok:s&#45;&gt;FETCH_DONE</title>
<path fill="none" stroke="black" d="M840,-120C840,-88.7683 758.901,-63.0086 697.983,-48.0645"/>
<polygon fill="black" stroke="black" points="698.555,-44.6024 688.014,-45.6702 696.92,-51.4089 698.555,-44.6024"/>
</g>
<!-- error -->
<g id="node26" class="node"><title>error</title>
<text text-anchor="middle" x="43" y="-168.4" font-family="Times Roman,serif" font-size="14.00">error</text>
</g>
<!-- error&#45;&gt;FETCH_FAIL -->
<g id="edge29" class="edge"><title>error&#45;&gt;FETCH_FAIL</title>
<path fill="none" stroke="black" d="M52.4008,-153.856C59.4533,-140.475 69.4896,-121.908 79,-106 88.1739,-90.6552 99.0509,-73.9094 108.03,-60.4321"/>
<polygon fill="black" stroke="black" points="110.957,-62.3503 113.619,-52.0951 105.143,-58.4523 110.957,-62.3503"/>
</g>
<!-- abandon -->
<g id="node33" class="node"><title>abandon</title>
<text text-anchor="middle" x="126" y="-168.4" font-family="Times Roman,serif" font-size="14.00">abandon</text>
</g>
<!-- abandon&#45;&gt;FETCH_FAIL -->
<g id="edge37" class="edge"><title>abandon&#45;&gt;FETCH_FAIL</title>
<path fill="none" stroke="black" d="M126,-153.959C126,-130.611 126,-89.6738 126,-62.2014"/>
<polygon fill="black" stroke="black" points="129.5,-62.0455 126,-52.0455 122.5,-62.0456 129.5,-62.0455"/>
</g>
</g>
</svg>
