<?xml version="1.0" encoding="UTF-8" standalone="no"?>
<!DOCTYPE svg PUBLIC "-//W3C//DTD SVG 1.1//EN"
 "http://www.w3.org/Graphics/SVG/1.1/DTD/svg11.dtd">
<!-- Generated by graphviz version 2.38.0 (20140413.2041)
 -->
<!-- Title: cache_fetch Pages: 1 -->
<svg width="975pt" height="723pt"
 viewBox="36.00 36.00 939.00 686.74" xmlns="http://www.w3.org/2000/svg" xmlns:xlink="http://www.w3.org/1999/xlink">
<g id="graph0" class="graph" transform="scale(1 1) rotate(0) translate(40 682.74)">
<title>cache_fetch</title>
<polygon fill="white" stroke="none" points="-4,4 -4,-646.74 899,-646.74 899,4 -4,4"/>
<g id="clust1" class="cluster"><title>cluster_backend</title>
<polygon fill="aliceblue" stroke="aliceblue" points="8,-8 8,-634.74 887,-634.74 887,-8 8,-8"/>
</g>
<!-- RETRY -->
<g id="node1" class="node"><title>RETRY</title>
<text text-anchor="middle" x="470" y="-613.04" font-family="Times,serif" font-size="14.00">RETRY</text>
</g>
<!-- v_b_f -->
<g id="node4" class="node"><title>v_b_f</title>
<polygon fill="none" stroke="black" points="205,-492.24 205,-561.24 443,-561.24 443,-492.24 205,-492.24"/>
<text text-anchor="middle" x="324" y="-546.04" font-family="Times,serif" font-size="14.00">vbf_stp_startfetch:</text>
<polyline fill="none" stroke="black" points="205,-538.24 443,-538.24 "/>
<text text-anchor="middle" x="289" y="-523.04" font-family="Times,serif" font-size="14.00">vcl_backend_fetch{}</text>
<polyline fill="none" stroke="black" points="373,-515.24 373,-538.24 "/>
<text text-anchor="middle" x="408" y="-523.04" font-family="Times,serif" font-size="14.00">bereq.*</text>
<polyline fill="none" stroke="black" points="205,-515.24 443,-515.24 "/>
<text text-anchor="middle" x="270.5" y="-500.04" font-family="Times,serif" font-size="14.00">abandon</text>
<polyline fill="none" stroke="black" points="336,-492.24 336,-515.24 "/>
<text text-anchor="middle" x="389.5" y="-500.04" font-family="Times,serif" font-size="14.00">fetch</text>
</g>
<!-- RETRY&#45;&gt;v_b_f -->
<g id="edge4" class="edge"><title>RETRY&#45;&gt;v_b_f</title>
<path fill="none" stroke="purple" d="M441.503,-598.564C426.315,-589.41 406.972,-577.751 388.384,-566.547"/>
<polygon fill="purple" stroke="purple" points="390,-563.435 379.629,-561.27 386.387,-569.43 390,-563.435"/>
</g>
<!-- v_b_f_BGFETCH -->
<g id="node2" class="node"><title>v_b_f_BGFETCH</title>
<polygon fill="turquoise" stroke="turquoise" points="419,-634.74 327,-634.74 327,-598.74 419,-598.74 419,-634.74"/>
<text text-anchor="middle" x="373" y="-613.04" font-family="Times,serif" font-size="14.00">BGFETCH</text>
</g>
<!-- v_b_f_BGFETCH&#45;&gt;v_b_f -->
<g id="edge1" class="edge"><title>v_b_f_BGFETCH&#45;&gt;v_b_f</title>
<path fill="none" stroke="green" stroke-width="2" d="M363.319,-598.354C358.835,-590.301 353.29,-580.342 347.792,-570.468"/>
<polygon fill="green" stroke="green" stroke-width="2" points="350.711,-568.516 342.788,-561.482 344.595,-571.922 350.711,-568.516"/>
</g>
<!-- v_b_f_FETCH -->
<g id="node3" class="node"><title>v_b_f_FETCH</title>
<polygon fill="turquoise" stroke="turquoise" points="309,-634.74 239,-634.74 239,-598.74 309,-598.74 309,-634.74"/>
<text text-anchor="middle" x="274" y="-613.04" font-family="Times,serif" font-size="14.00">FETCH</text>
</g>
<!-- v_b_f_FETCH&#45;&gt;v_b_f -->
<g id="edge2" class="edge"><title>v_b_f_FETCH&#45;&gt;v_b_f</title>
<path fill="none" stroke="blue" stroke-width="2" d="M278.375,-598.354C282.12,-590.218 287.433,-580.138 293.148,-570.166"/>
<polygon fill="blue" stroke="blue" stroke-width="2" points="296.202,-571.878 298.244,-561.482 290.164,-568.335 296.202,-571.878"/>
</g>
<!-- v_b_f_FETCH&#45;&gt;v_b_f -->
<g id="edge3" class="edge"><title>v_b_f_FETCH&#45;&gt;v_b_f</title>
<path fill="none" stroke="red" stroke-width="2" d="M289.382,-598.354C294.826,-590.301 300.899,-580.342 306.47,-570.468"/>
<polygon fill="red" stroke="red" stroke-width="2" points="309.66,-571.931 311.413,-561.482 303.527,-568.557 309.66,-571.931"/>
</g>
<!-- v_b_hdrs -->
<g id="node5" class="node"><title>v_b_hdrs</title>
<ellipse fill="none" stroke="black" cx="390" cy="-427.87" rx="123.073" ry="26.7407"/>
<text text-anchor="middle" x="390" y="-431.67" font-family="Times,serif" font-size="14.00">send bereq,</text>
<text text-anchor="middle" x="390" y="-416.67" font-family="Times,serif" font-size="14.00">read beresp (headers)</text>
</g>
<!-- v_b_f&#45;&gt;v_b_hdrs -->
<g id="edge5" class="edge"><title>v_b_f:fetch:s&#45;&gt;v_b_hdrs</title>
<path fill="none" stroke="black" stroke-width="2" d="M390,-491.74C390,-483.127 390,-473.849 390,-465.136"/>
<polygon fill="black" stroke="black" stroke-width="2" points="393.5,-464.87 390,-454.87 386.5,-464.87 393.5,-464.87"/>
</g>
<!-- v_b_r -->
<g id="node6" class="node"><title>v_b_r</title>
<polygon fill="none" stroke="black" points="397.5,-248.5 397.5,-363.5 682.5,-363.5 682.5,-248.5 397.5,-248.5"/>
<text text-anchor="middle" x="540" y="-348.3" font-family="Times,serif" font-size="14.00">vbf_stp_startfetch:</text>
<polyline fill="none" stroke="black" points="397.5,-340.5 682.5,-340.5 "/>
<text text-anchor="middle" x="498.5" y="-313.8" font-family="Times,serif" font-size="14.00">vcl_backend_response{}</text>
<polyline fill="none" stroke="black" points="599.5,-294.5 599.5,-340.5 "/>
<text text-anchor="middle" x="641" y="-325.3" font-family="Times,serif" font-size="14.00">bereq.*</text>
<polyline fill="none" stroke="black" points="599.5,-317.5 682.5,-317.5 "/>
<text text-anchor="middle" x="641" y="-302.3" font-family="Times,serif" font-size="14.00">beresp.*</text>
<polyline fill="none" stroke="black" points="397.5,-294.5 682.5,-294.5 "/>
<text text-anchor="middle" x="445" y="-279.3" font-family="Times,serif" font-size="14.00">retry</text>
<polyline fill="none" stroke="black" points="397.5,-271.5 492.5,-271.5 "/>
<text text-anchor="middle" x="424.5" y="-256.3" font-family="Times,serif" font-size="14.00">max?</text>
<polyline fill="none" stroke="black" points="451.5,-248.5 451.5,-271.5 "/>
<text text-anchor="middle" x="472" y="-256.3" font-family="Times,serif" font-size="14.00">ok?</text>
<polyline fill="none" stroke="black" points="492.5,-248.5 492.5,-294.5 "/>
<text text-anchor="middle" x="531" y="-267.8" font-family="Times,serif" font-size="14.00">abandon</text>
<polyline fill="none" stroke="black" points="569.5,-248.5 569.5,-294.5 "/>
<text text-anchor="middle" x="626" y="-279.3" font-family="Times,serif" font-size="14.00">deliver</text>
<polyline fill="none" stroke="black" points="569.5,-271.5 682.5,-271.5 "/>
<text text-anchor="middle" x="595" y="-256.3" font-family="Times,serif" font-size="14.00">304?</text>
<polyline fill="none" stroke="black" points="620.5,-248.5 620.5,-271.5 "/>
<text text-anchor="middle" x="651.5" y="-256.3" font-family="Times,serif" font-size="14.00">other?</text>
</g>
<!-- v_b_hdrs&#45;&gt;v_b_r -->
<g id="edge6" class="edge"><title>v_b_hdrs&#45;&gt;v_b_r</title>
<path fill="none" stroke="black" stroke-width="2" d="M421.445,-401.741C433.187,-392.358 447.11,-381.232 461.211,-369.963"/>
<polygon fill="black" stroke="black" stroke-width="2" points="463.424,-372.675 469.051,-363.698 459.054,-367.206 463.424,-372.675"/>
</g>
<!-- v_b_e -->
<g id="node7" class="node"><title>v_b_e</title>
<polygon fill="none" stroke="black" points="175.5,-95.5 175.5,-210.5 420.5,-210.5 420.5,-95.5 175.5,-95.5"/>
<text text-anchor="middle" x="298" y="-195.3" font-family="Times,serif" font-size="14.00">vbf_stp_error:</text>
<polyline fill="none" stroke="black" points="175.5,-187.5 420.5,-187.5 "/>
<text text-anchor="middle" x="259.5" y="-160.8" font-family="Times,serif" font-size="14.00">vcl_backend_error{}</text>
<polyline fill="none" stroke="black" points="343.5,-141.5 343.5,-187.5 "/>
<text text-anchor="middle" x="382" y="-172.3" font-family="Times,serif" font-size="14.00">bereq.*</text>
<polyline fill="none" stroke="black" points="343.5,-164.5 420.5,-164.5 "/>
<text text-anchor="middle" x="382" y="-149.3" font-family="Times,serif" font-size="14.00">beresp.*</text>
<polyline fill="none" stroke="black" points="175.5,-141.5 420.5,-141.5 "/>
<text text-anchor="middle" x="224" y="-126.3" font-family="Times,serif" font-size="14.00">retry</text>
<polyline fill="none" stroke="black" points="175.5,-118.5 272.5,-118.5 "/>
<text text-anchor="middle" x="203" y="-103.3" font-family="Times,serif" font-size="14.00">max?</text>
<polyline fill="none" stroke="black" points="230.5,-95.5 230.5,-118.5 "/>
<text text-anchor="middle" x="251.5" y="-103.3" font-family="Times,serif" font-size="14.00">ok?</text>
<polyline fill="none" stroke="black" points="272.5,-95.5 272.5,-141.5 "/>
<text text-anchor="middle" x="312" y="-114.8" font-family="Times,serif" font-size="14.00">abandon</text>
<polyline fill="none" stroke="black" points="351.5,-95.5 351.5,-141.5 "/>
<text text-anchor="middle" x="386" y="-114.8" font-family="Times,serif" font-size="14.00">deliver</text>
</g>
<!-- v_b_hdrs&#45;&gt;v_b_e -->
<g id="edge7" class="edge"><title>v_b_hdrs&#45;&gt;v_b_e</title>
<path fill="none" stroke="black" d="M381.179,-400.706C367.298,-359.535 339.926,-278.35 320.372,-220.355"/>
<polygon fill="black" stroke="black" points="323.573,-218.893 317.061,-210.535 316.94,-221.129 323.573,-218.893"/>
</g>
<!-- v_b_r&#45;&gt;v_b_e -->
<g id="edge9" class="edge"><title>v_b_r:max&#45;&gt;v_b_e</title>
<path fill="none" stroke="black" d="M396,-260C368.887,-260 347.189,-241.071 331.171,-219.212"/>
<polygon fill="black" stroke="black" points="333.872,-216.964 325.31,-210.724 328.112,-220.942 333.872,-216.964"/>
</g>
<!-- v_b_r_retry -->
<g id="node8" class="node"><title>v_b_r_retry</title>
<text text-anchor="middle" x="472" y="-149.3" font-family="Times,serif" font-size="14.00">RETRY</text>
</g>
<!-- v_b_r&#45;&gt;v_b_r_retry -->
<g id="edge8" class="edge"><title>v_b_r:retry&#45;&gt;v_b_r_retry</title>
<path fill="none" stroke="purple" d="M472,-248C472,-225.627 472,-200.259 472,-181.52"/>
<polygon fill="purple" stroke="purple" points="475.5,-181.325 472,-171.325 468.5,-181.325 475.5,-181.325"/>
</g>
<!-- vbf_stp_condfetch -->
<g id="node9" class="node"><title>vbf_stp_condfetch</title>
<polygon fill="none" stroke="grey" points="523,-107 523,-199 675,-199 675,-107 523,-107"/>
<text text-anchor="middle" x="599" y="-183.8" font-family="Times,serif" font-size="14.00" fill="grey">vbf_stp_condfetch:</text>
<polyline fill="none" stroke="grey" points="523,-176 675,-176 "/>
<text text-anchor="middle" x="599" y="-160.8" font-family="Times,serif" font-size="14.00" fill="grey">copy obj attr</text>
<polyline fill="none" stroke="grey" points="523,-153 675,-153 "/>
<text text-anchor="middle" x="599" y="-137.8" font-family="Times,serif" font-size="14.00" fill="grey">steal body</text>
<polyline fill="none" stroke="grey" points="523,-130 675,-130 "/>
<text text-anchor="middle" x="573.5" y="-114.8" font-family="Times,serif" font-size="14.00" fill="grey">fetch_fail?</text>
<polyline fill="none" stroke="grey" points="624,-107 624,-130 "/>
<text text-anchor="middle" x="649.5" y="-114.8" font-family="Times,serif" font-size="14.00" fill="grey">ok?</text>
</g>
<!-- v_b_r&#45;&gt;vbf_stp_condfetch -->
<g id="edge10" class="edge"><title>v_b_r:fetch_304:s&#45;&gt;vbf_stp_condfetch</title>
<path fill="none" stroke="black" d="M595,-248C595,-235.622 595.351,-222.335 595.844,-209.762"/>
<polygon fill="black" stroke="black" points="599.356,-209.545 596.288,-199.404 592.363,-209.245 599.356,-209.545"/>
</g>
<!-- vbf_stp_fetch -->
<g id="node10" class="node"><title>vbf_stp_fetch</title>
<polygon fill="none" stroke="grey" points="693.5,-107 693.5,-199 886.5,-199 886.5,-107 693.5,-107"/>
<text text-anchor="middle" x="790" y="-183.8" font-family="Times,serif" font-size="14.00" fill="grey">vbf_stp_fetch:</text>
<polyline fill="none" stroke="grey" points="693.5,-176 886.5,-176 "/>
<text text-anchor="middle" x="790" y="-160.8" font-family="Times,serif" font-size="14.00" fill="grey">setup VFPs</text>
<polyline fill="none" stroke="grey" points="693.5,-153 886.5,-153 "/>
<text text-anchor="middle" x="790" y="-137.8" font-family="Times,serif" font-size="14.00" fill="grey">fetch</text>
<polyline fill="none" stroke="grey" points="693.5,-130 886.5,-130 "/>
<text text-anchor="middle" x="739" y="-114.8" font-family="Times,serif" font-size="14.00" fill="grey">fetch_fail?</text>
<polyline fill="none" stroke="grey" points="784.5,-107 784.5,-130 "/>
<text text-anchor="middle" x="815" y="-114.8" font-family="Times,serif" font-size="14.00" fill="grey">error?</text>
<polyline fill="none" stroke="grey" points="845.5,-107 845.5,-130 "/>
<text text-anchor="middle" x="866" y="-114.8" font-family="Times,serif" font-size="14.00" fill="grey">ok?</text>
</g>
<!-- v_b_r&#45;&gt;vbf_stp_fetch -->
<g id="edge11" class="edge"><title>v_b_r:non_304:s&#45;&gt;vbf_stp_fetch</title>
<path fill="none" stroke="black" d="M652,-248C652,-240.25 676.08,-222.572 704.123,-204.613"/>
<polygon fill="black" stroke="black" points="706.351,-207.346 712.931,-199.042 702.608,-201.43 706.351,-207.346"/>
</g>
<!-- FETCH_DONE -->
<g id="node11" class="node"><title>FETCH_DONE</title>
<polygon fill="turquoise" stroke="turquoise" points="711.5,-44 588.5,-44 588.5,-8 711.5,-8 711.5,-44"/>
<text text-anchor="middle" x="650" y="-22.3" font-family="Times,serif" font-size="14.00">FETCH_DONE</text>
</g>
<!-- v_b_e&#45;&gt;FETCH_DONE -->
<g id="edge15" class="edge"><title>v_b_e:deliver&#45;&gt;FETCH_DONE</title>
<path fill="none" stroke="black" d="M422,-118C432.823,-118 422.321,-102.627 430,-95 462.31,-62.9099 483.531,-75.5693 527,-62 543.565,-56.8292 561.48,-51.5532 578.377,-46.7183"/>
<polygon fill="black" stroke="black" points="579.53,-50.0294 588.191,-43.9267 577.615,-43.2965 579.53,-50.0294"/>
<text text-anchor="middle" x="586.5" y="-65.8" font-family="Times,serif" font-size="14.00">&quot;backend synth&quot;</text>
</g>
<!-- FETCH_FAIL -->
<g id="node13" class="node"><title>FETCH_FAIL</title>
<polygon fill="turquoise" stroke="turquoise" points="175,-44 63,-44 63,-8 175,-8 175,-44"/>
<text text-anchor="middle" x="119" y="-22.3" font-family="Times,serif" font-size="14.00">FETCH_FAIL</text>
</g>
<!-- v_b_e&#45;&gt;FETCH_FAIL -->
<g id="edge17" class="edge"><title>v_b_e:max:s&#45;&gt;FETCH_FAIL</title>
<path fill="none" stroke="black" d="M203,-95C203,-75.1876 188.709,-60.1502 171.915,-49.3195"/>
<polygon fill="black" stroke="black" points="173.359,-46.107 162.968,-44.0361 169.799,-52.1346 173.359,-46.107"/>
</g>
<!-- v_b_e_retry -->
<g id="node14" class="node"><title>v_b_e_retry</title>
<text text-anchor="middle" x="251" y="-22.3" font-family="Times,serif" font-size="14.00">RETRY</text>
</g>
<!-- v_b_e&#45;&gt;v_b_e_retry -->
<g id="edge16" class="edge"><title>v_b_e:retry&#45;&gt;v_b_e_retry</title>
<path fill="none" stroke="purple" d="M251,-95C251,-81.5776 251,-66.665 251,-54.2333"/>
<polygon fill="purple" stroke="purple" points="254.5,-54.0469 251,-44.0469 247.5,-54.0469 254.5,-54.0469"/>
</g>
<!-- vbf_stp_condfetch&#45;&gt;FETCH_DONE -->
<g id="edge13" class="edge"><title>vbf_stp_condfetch:ok:s&#45;&gt;FETCH_DONE</title>
<path fill="none" stroke="black" d="M650,-106C650,-88.8934 650,-69.7032 650,-54.5204"/>
<polygon fill="black" stroke="black" points="653.5,-54.2602 650,-44.2603 646.5,-54.2603 653.5,-54.2602"/>
</g>
<!-- vbf_stp_fetch&#45;&gt;FETCH_DONE -->
<g id="edge12" class="edge"><title>vbf_stp_fetch:ok:s&#45;&gt;FETCH_DONE</title>
<path fill="none" stroke="black" d="M866,-106C866,-74.5889 784.414,-51.948 721.525,-39.1616"/>
<polygon fill="black" stroke="black" points="722.098,-35.7071 711.608,-37.1943 720.736,-42.5733 722.098,-35.7071"/>
</g>
<!-- error -->
<g id="node12" class="node"><title>error</title>
<text text-anchor="middle" x="35" y="-149.3" font-family="Times,serif" font-size="14.00">error</text>
</g>
<!-- error&#45;&gt;FETCH_FAIL -->
<g id="edge14" class="edge"><title>error&#45;&gt;FETCH_FAIL</title>
<path fill="none" stroke="black" d="M45.4858,-134.893C52.5498,-123.495 62.1573,-108.236 71,-95 80.5227,-80.7465 91.5267,-65.1016 100.594,-52.4153"/>
<polygon fill="black" stroke="black" points="103.533,-54.3234 106.521,-44.1586 97.8464,-50.2416 103.533,-54.3234"/>
</g>
<!-- abandon -->
<g id="node15" class="node"><title>abandon</title>
<text text-anchor="middle" x="119" y="-149.3" font-family="Times,serif" font-size="14.00">abandon</text>
</g>
<!-- abandon&#45;&gt;FETCH_FAIL -->
<g id="edge18" class="edge"><title>abandon&#45;&gt;FETCH_FAIL</title>
<path fill="none" stroke="black" d="M119,-134.881C119,-114.146 119,-78.9525 119,-54.4215"/>
<polygon fill="black" stroke="black" points="122.5,-54.313 119,-44.313 115.5,-54.313 122.5,-54.313"/>
</g>
</g>
</svg>
