<?xml version="1.0" encoding="UTF-8" standalone="no"?>
<!DOCTYPE svg PUBLIC "-//W3C//DTD SVG 1.1//EN"
 "http://www.w3.org/Graphics/SVG/1.1/DTD/svg11.dtd">
<!-- Generated by graphviz version 2.38.0 (20140413.2041)
 -->
<!-- Title: vcl_center Pages: 1 -->
<svg width="726pt" height="606pt"
 viewBox="36.00 36.00 689.64 570.00" xmlns="http://www.w3.org/2000/svg" xmlns:xlink="http://www.w3.org/1999/xlink">
<g id="graph0" class="graph" transform="scale(1 1) rotate(0) translate(40 566)">
<title>vcl_center</title>
<polygon fill="white" stroke="none" points="-4,4 -4,-530 649.641,-530 649.641,4 -4,4"/>
<!-- acceptor -->
<g id="node1" class="node"><title>acceptor</title>
<ellipse fill="none" stroke="black" cx="470.641" cy="-508" rx="51.9908" ry="18"/>
<text text-anchor="middle" x="470.641" y="-504.3" font-family="Times,serif" font-size="14.00">acceptor</text>
</g>
<!-- http1_wait -->
<g id="node2" class="node"><title>http1_wait</title>
<ellipse fill="none" stroke="black" cx="470.641" cy="-421" rx="61.1893" ry="18"/>
<text text-anchor="middle" x="470.641" y="-417.3" font-family="Times,serif" font-size="14.00">http1_wait</text>
</g>
<!-- acceptor&#45;&gt;http1_wait -->
<g id="edge1" class="edge"><title>acceptor&#45;&gt;http1_wait</title>
<path fill="none" stroke="black" d="M470.641,-489.799C470.641,-478.163 470.641,-462.548 470.641,-449.237"/>
<polygon fill="black" stroke="black" points="474.141,-449.175 470.641,-439.175 467.141,-449.175 474.141,-449.175"/>
<text text-anchor="middle" x="532.141" y="-460.8" font-family="Times,serif" font-size="14.00">S_STP_NEWREQ</text>
</g>
<!-- CNT_Request -->
<g id="node4" class="node"><title>CNT_Request</title>
<ellipse fill="none" stroke="black" cx="141.641" cy="-319" rx="75.2868" ry="18"/>
<text text-anchor="middle" x="141.641" y="-315.3" font-family="Times,serif" font-size="14.00">CNT_Request</text>
</g>
<!-- http1_wait&#45;&gt;CNT_Request -->
<g id="edge4" class="edge"><title>http1_wait&#45;&gt;CNT_Request</title>
<path fill="none" stroke="black" d="M409.629,-419.341C334.533,-417.421 212.426,-410.354 175.641,-385 162.563,-375.986 154.157,-360.326 148.976,-346.635"/>
<polygon fill="black" stroke="black" points="152.281,-345.483 145.753,-337.138 145.653,-347.733 152.281,-345.483"/>
<text text-anchor="middle" x="240.641" y="-373.8" font-family="Times,serif" font-size="14.00">S_STP_WORKING</text>
<text text-anchor="middle" x="240.641" y="-358.8" font-family="Times,serif" font-size="14.00">R_STP_RECV</text>
</g>
<!-- disembark -->
<g id="node5" class="node"><title>disembark</title>
<ellipse fill="none" stroke="black" cx="397.641" cy="-91" rx="59.5901" ry="18"/>
<text text-anchor="middle" x="397.641" y="-87.3" font-family="Times,serif" font-size="14.00">disembark</text>
</g>
<!-- http1_wait&#45;&gt;disembark -->
<g id="edge5" class="edge"><title>http1_wait&#45;&gt;disembark</title>
<path fill="none" stroke="black" d="M468.861,-402.623C466.424,-379.417 461.762,-337.042 456.641,-301 455.501,-292.97 454.697,-291.041 453.641,-283 444.577,-213.939 470.807,-188.781 438.641,-127 436.332,-122.564 433.2,-118.455 429.69,-114.73"/>
<polygon fill="black" stroke="black" points="431.794,-111.906 422.096,-107.64 427.017,-117.022 431.794,-111.906"/>
<text text-anchor="middle" x="501.641" y="-264.3" font-family="Times,serif" font-size="14.00">Session close</text>
</g>
<!-- http1_wait&#45;&gt;disembark -->
<g id="edge6" class="edge"><title>http1_wait&#45;&gt;disembark</title>
<path fill="none" stroke="green" d="M487.813,-403.543C516.185,-374.267 567.989,-310.776 549.641,-253 528.89,-187.654 511.665,-172.796 460.641,-127 454.15,-121.173 446.521,-115.924 438.856,-111.371"/>
<polygon fill="green" stroke="green" points="440.342,-108.191 429.908,-106.351 436.918,-114.296 440.342,-108.191"/>
<text text-anchor="middle" x="582.141" y="-264.3" font-family="Times,serif" font-size="14.00">Timeout</text>
</g>
<!-- hash -->
<g id="node3" class="node"><title>hash</title>
<ellipse fill="none" stroke="black" cx="165.641" cy="-18" rx="32.4942" ry="18"/>
<text text-anchor="middle" x="165.641" y="-14.3" font-family="Times,serif" font-size="14.00">hash</text>
</g>
<!-- hash&#45;&gt;CNT_Request -->
<g id="edge2" class="edge"><title>hash&#45;&gt;CNT_Request</title>
<path fill="none" stroke="blue" d="M138.744,-28.3304C101.613,-42.8463 36.1266,-74.7325 8.64136,-127 -25.8482,-192.587 57.3305,-262.223 107.289,-296.449"/>
<polygon fill="blue" stroke="blue" points="105.343,-299.358 115.597,-302.026 109.245,-293.546 105.343,-299.358"/>
<text text-anchor="middle" x="73.6414" y="-160.8" font-family="Times,serif" font-size="14.00">Busy object</text>
<text text-anchor="middle" x="73.6414" y="-145.8" font-family="Times,serif" font-size="14.00">S_STP_WORKING</text>
<text text-anchor="middle" x="73.6414" y="-130.8" font-family="Times,serif" font-size="14.00">R_STP_LOOKUP</text>
</g>
<!-- CNT_Request&#45;&gt;disembark -->
<g id="edge9" class="edge"><title>CNT_Request&#45;&gt;disembark</title>
<path fill="none" stroke="blue" d="M132.733,-300.891C120.38,-274.533 102.08,-223.533 125.641,-190 171.248,-125.092 264.212,-102.976 328.678,-95.5546"/>
<polygon fill="blue" stroke="blue" points="329.193,-99.0198 338.768,-94.4854 328.455,-92.0588 329.193,-99.0198"/>
<text text-anchor="middle" x="190.641" y="-223.8" font-family="Times,serif" font-size="14.00">Busy object</text>
<text text-anchor="middle" x="190.641" y="-208.8" font-family="Times,serif" font-size="14.00">S_STP_WORKING</text>
<text text-anchor="middle" x="190.641" y="-193.8" font-family="Times,serif" font-size="14.00">R_STP_LOOKUP</text>
</g>
<!-- http1_cleanup -->
<g id="node7" class="node"><title>http1_cleanup</title>
<ellipse fill="none" stroke="black" cx="341.641" cy="-212.5" rx="77.1866" ry="18"/>
<text text-anchor="middle" x="341.641" y="-208.8" font-family="Times,serif" font-size="14.00">http1_cleanup</text>
</g>
<!-- CNT_Request&#45;&gt;http1_cleanup -->
<g id="edge10" class="edge"><title>CNT_Request&#45;&gt;http1_cleanup</title>
<path fill="none" stroke="black" d="M140.477,-300.889C140.467,-286.141 142.998,-265.332 155.641,-253 186.404,-222.994 208.609,-243.943 250.641,-235 260.287,-232.948 270.48,-230.659 280.416,-228.361"/>
<polygon fill="black" stroke="black" points="281.295,-231.75 290.237,-226.069 279.704,-224.933 281.295,-231.75"/>
</g>
<!-- disembark&#45;&gt;hash -->
<g id="edge3" class="edge"><title>disembark&#45;&gt;hash</title>
<path fill="none" stroke="blue" stroke-dasharray="1,5" d="M357.23,-77.6327C313.842,-64.3546 245.465,-43.4287 203.208,-30.4968"/>
<polygon fill="blue" stroke="blue" points="204.162,-27.1285 193.576,-27.5488 202.113,-33.822 204.162,-27.1285"/>
</g>
<!-- waiter -->
<g id="node6" class="node"><title>waiter</title>
<ellipse fill="none" stroke="black" cx="450.641" cy="-18" rx="40.0939" ry="18"/>
<text text-anchor="middle" x="450.641" y="-14.3" font-family="Times,serif" font-size="14.00">waiter</text>
</g>
<!-- disembark&#45;&gt;waiter -->
<g id="edge7" class="edge"><title>disembark&#45;&gt;waiter</title>
<path fill="none" stroke="green" stroke-dasharray="1,5" d="M410.202,-73.174C416.831,-64.2934 425.087,-53.2332 432.408,-43.4261"/>
<polygon fill="green" stroke="green" points="435.359,-45.3237 438.536,-35.2165 429.749,-41.1364 435.359,-45.3237"/>
</g>
<!-- waiter&#45;&gt;http1_wait -->
<g id="edge8" class="edge"><title>waiter&#45;&gt;http1_wait</title>
<path fill="none" stroke="green" d="M488.239,-24.8238C544.904,-34.6766 645.641,-56.8539 645.641,-90 645.641,-320 645.641,-320 645.641,-320 645.641,-372.981 584.428,-398.272 534.408,-410.094"/>
<polygon fill="green" stroke="green" points="533.576,-406.693 524.575,-412.283 535.097,-413.526 533.576,-406.693"/>
</g>
<!-- http1_cleanup&#45;&gt;http1_wait -->
<g id="edge13" class="edge"><title>http1_cleanup&#45;&gt;http1_wait</title>
<path fill="none" stroke="black" d="M334.926,-230.782C326.325,-255.937 314.659,-303.305 333.641,-337 352.073,-369.717 389.176,-391.012 420.126,-403.832"/>
<polygon fill="black" stroke="black" points="418.92,-407.118 429.507,-407.542 421.495,-400.609 418.92,-407.118"/>
<text text-anchor="middle" x="395.141" y="-315.3" font-family="Times,serif" font-size="14.00">S_STP_NEWREQ</text>
</g>
<!-- http1_cleanup&#45;&gt;CNT_Request -->
<g id="edge12" class="edge"><title>http1_cleanup&#45;&gt;CNT_Request</title>
<path fill="none" stroke="black" d="M289.241,-225.902C240.704,-237.4 175.934,-252.773 175.641,-253 163.307,-262.597 154.985,-277.93 149.663,-291.294"/>
<polygon fill="black" stroke="black" points="146.262,-290.408 146.161,-301.002 152.847,-292.783 146.262,-290.408"/>
<text text-anchor="middle" x="240.641" y="-271.8" font-family="Times,serif" font-size="14.00">S_STP_WORKING</text>
<text text-anchor="middle" x="240.641" y="-256.8" font-family="Times,serif" font-size="14.00">R_STP_RECV</text>
</g>
<!-- http1_cleanup&#45;&gt;disembark -->
<g id="edge11" class="edge"><title>http1_cleanup&#45;&gt;disembark</title>
<path fill="none" stroke="black" d="M337.336,-194.42C333.785,-176.439 331.01,-147.895 342.641,-127 345.857,-121.224 350.468,-116.262 355.67,-112.043"/>
<polygon fill="black" stroke="black" points="358.063,-114.638 364.217,-106.014 354.028,-108.918 358.063,-114.638"/>
<text text-anchor="middle" x="390.641" y="-145.8" font-family="Times,serif" font-size="14.00">Session close</text>
</g>
</g>
</svg>
