<?xml version="1.0" encoding="UTF-8" standalone="no"?>
<!DOCTYPE svg PUBLIC "-//W3C//DTD SVG 1.1//EN"
 "http://www.w3.org/Graphics/SVG/1.1/DTD/svg11.dtd">
<!-- Generated by graphviz version 2.38.0 (20140413.2041)
 -->
<!-- Title: cache_req_fsm Pages: 1 -->
<svg width="1011pt" height="1349pt"
 viewBox="18.00 18.00 992.83 1331.00" xmlns="http://www.w3.org/2000/svg" xmlns:xlink="http://www.w3.org/1999/xlink">
<g id="graph0" class="graph" transform="scale(1 1) rotate(0) translate(22 1327)">
<title>cache_req_fsm</title>
<polygon fill="white" stroke="none" points="-4,4 -4,-1309 970.829,-1309 970.829,4 -4,4"/>
<g id="clust3" class="cluster"><title>cluster_backend</title>
<polygon fill="aliceblue" stroke="aliceblue" points="55.5,-299 55.5,-408 405.5,-408 405.5,-299 55.5,-299"/>
</g>
<!-- acceptor -->
<g id="node1" class="node"><title>acceptor</title>
<polygon fill="none" stroke="black" points="614.138,-1208.5 561.319,-1226.5 455.681,-1226.5 402.862,-1208.5 455.681,-1190.5 561.319,-1190.5 614.138,-1208.5"/>
<text text-anchor="middle" x="508.5" y="-1204.8" font-family="Times,serif" font-size="14.00">Request received</text>
</g>
<!-- recv -->
<g id="node4" class="node"><title>recv</title>
<polygon fill="none" stroke="black" points="562,-1078.5 562,-1147.5 823,-1147.5 823,-1078.5 562,-1078.5"/>
<text text-anchor="middle" x="692.5" y="-1132.3" font-family="Times,serif" font-size="14.00">cnt_recv:</text>
<polyline fill="none" stroke="black" points="562,-1124.5 823,-1124.5 "/>
<text text-anchor="middle" x="637.5" y="-1109.3" font-family="Times,serif" font-size="14.00">vcl_recv{}</text>
<polyline fill="none" stroke="black" points="713,-1101.5 713,-1124.5 "/>
<text text-anchor="middle" x="768" y="-1109.3" font-family="Times,serif" font-size="14.00">req.*</text>
<polyline fill="none" stroke="black" points="562,-1101.5 823,-1101.5 "/>
<text text-anchor="middle" x="587" y="-1086.3" font-family="Times,serif" font-size="14.00">hash</text>
<polyline fill="none" stroke="black" points="612,-1078.5 612,-1101.5 "/>
<text text-anchor="middle" x="641.5" y="-1086.3" font-family="Times,serif" font-size="14.00">purge</text>
<polyline fill="none" stroke="black" points="671,-1078.5 671,-1101.5 "/>
<text text-anchor="middle" x="695.5" y="-1086.3" font-family="Times,serif" font-size="14.00">pass</text>
<polyline fill="none" stroke="black" points="720,-1078.5 720,-1101.5 "/>
<text text-anchor="middle" x="743.5" y="-1086.3" font-family="Times,serif" font-size="14.00">pipe</text>
<polyline fill="none" stroke="black" points="767,-1078.5 767,-1101.5 "/>
<text text-anchor="middle" x="795" y="-1086.3" font-family="Times,serif" font-size="14.00">synth</text>
</g>
<!-- acceptor&#45;&gt;recv -->
<g id="edge2" class="edge"><title>acceptor&#45;&gt;recv</title>
<path fill="none" stroke="black" stroke-width="2" d="M542.248,-1190.35C563.315,-1179.65 591.305,-1165.42 617.413,-1152.16"/>
<polygon fill="black" stroke="black" stroke-width="2" points="619.226,-1155.16 626.555,-1147.51 616.054,-1148.92 619.226,-1155.16"/>
</g>
<!-- ESI_REQ -->
<g id="node2" class="node"><title>ESI_REQ</title>
<polygon fill="none" stroke="black" points="755.08,-1208.5 724.29,-1226.5 662.71,-1226.5 631.92,-1208.5 662.71,-1190.5 724.29,-1190.5 755.08,-1208.5"/>
<text text-anchor="middle" x="693.5" y="-1204.8" font-family="Times,serif" font-size="14.00">ESI_REQ</text>
</g>
<!-- ESI_REQ&#45;&gt;recv -->
<g id="edge1" class="edge"><title>ESI_REQ&#45;&gt;recv</title>
<path fill="none" stroke="black" d="M693.317,-1190.35C693.218,-1181.14 693.092,-1169.31 692.968,-1157.74"/>
<polygon fill="black" stroke="black" points="696.467,-1157.66 692.86,-1147.7 689.468,-1157.74 696.467,-1157.66"/>
</g>
<!-- RESTART -->
<g id="node3" class="node"><title>RESTART</title>
<text text-anchor="middle" x="854.5" y="-1283.3" font-family="Times,serif" font-size="14.00">RESTART</text>
</g>
<!-- restart -->
<g id="node22" class="node"><title>restart</title>
<polygon fill="none" stroke="grey" points="774.5,-1185.5 774.5,-1231.5 934.5,-1231.5 934.5,-1185.5 774.5,-1185.5"/>
<text text-anchor="middle" x="854.5" y="-1216.3" font-family="Times,serif" font-size="14.00" fill="grey">cnt_restart:</text>
<polyline fill="none" stroke="grey" points="774.5,-1208.5 934.5,-1208.5 "/>
<text text-anchor="middle" x="795" y="-1193.3" font-family="Times,serif" font-size="14.00" fill="grey">ok?</text>
<polyline fill="none" stroke="grey" points="815.5,-1185.5 815.5,-1208.5 "/>
<text text-anchor="middle" x="875" y="-1193.3" font-family="Times,serif" font-size="14.00" fill="grey">max_restarts?</text>
</g>
<!-- RESTART&#45;&gt;restart -->
<g id="edge28" class="edge"><title>RESTART&#45;&gt;restart</title>
<path fill="none" stroke="purple" d="M854.5,-1268.64C854.5,-1260.7 854.5,-1251.02 854.5,-1241.81"/>
<polygon fill="purple" stroke="purple" points="858,-1241.74 854.5,-1231.74 851,-1241.74 858,-1241.74"/>
</g>
<!-- pass -->
<g id="node19" class="node"><title>pass</title>
<polygon fill="none" stroke="black" points="258,-445.5 258,-514.5 433,-514.5 433,-445.5 258,-445.5"/>
<text text-anchor="middle" x="345.5" y="-499.3" font-family="Times,serif" font-size="14.00">cnt_pass:</text>
<polyline fill="none" stroke="black" points="258,-491.5 433,-491.5 "/>
<text text-anchor="middle" x="312" y="-476.3" font-family="Times,serif" font-size="14.00">vcl_pass{}</text>
<polyline fill="none" stroke="black" points="366,-468.5 366,-491.5 "/>
<text text-anchor="middle" x="399.5" y="-476.3" font-family="Times,serif" font-size="14.00">req.*</text>
<polyline fill="none" stroke="black" points="258,-468.5 433,-468.5 "/>
<text text-anchor="middle" x="284.5" y="-453.3" font-family="Times,serif" font-size="14.00">fetch</text>
<polyline fill="none" stroke="black" points="311,-445.5 311,-468.5 "/>
<text text-anchor="middle" x="339" y="-453.3" font-family="Times,serif" font-size="14.00">synth</text>
<polyline fill="none" stroke="black" points="367,-445.5 367,-468.5 "/>
<text text-anchor="middle" x="400" y="-453.3" font-family="Times,serif" font-size="14.00">restart</text>
</g>
<!-- recv&#45;&gt;pass -->
<g id="edge33" class="edge"><title>recv:pass&#45;&gt;pass</title>
<path fill="none" stroke="red" stroke-width="2" d="M695.5,-1078C695.5,-1036.22 694.5,-1025.78 694.5,-984 694.5,-984 694.5,-984 694.5,-615 694.5,-560.849 546.218,-520.359 442.962,-498.728"/>
<polygon fill="red" stroke="red" stroke-width="2" points="443.618,-495.289 433.117,-496.693 442.202,-502.145 443.618,-495.289"/>
</g>
<!-- pipe -->
<g id="node20" class="node"><title>pipe</title>
<polygon fill="none" stroke="black" points="743.5,-925.5 743.5,-1040.5 907.5,-1040.5 907.5,-925.5 743.5,-925.5"/>
<text text-anchor="middle" x="825.5" y="-1025.3" font-family="Times,serif" font-size="14.00">cnt_pipe:</text>
<polyline fill="none" stroke="black" points="743.5,-1017.5 907.5,-1017.5 "/>
<text text-anchor="middle" x="825.5" y="-1002.3" font-family="Times,serif" font-size="14.00">filter req.*&#45;&gt;bereq.*</text>
<polyline fill="none" stroke="black" points="743.5,-994.5 907.5,-994.5 "/>
<text text-anchor="middle" x="790.5" y="-967.8" font-family="Times,serif" font-size="14.00">vcl_pipe{}</text>
<polyline fill="none" stroke="black" points="837.5,-948.5 837.5,-994.5 "/>
<text text-anchor="middle" x="872.5" y="-979.3" font-family="Times,serif" font-size="14.00">req.*</text>
<polyline fill="none" stroke="black" points="837.5,-971.5 907.5,-971.5 "/>
<text text-anchor="middle" x="872.5" y="-956.3" font-family="Times,serif" font-size="14.00">bereq.*</text>
<polyline fill="none" stroke="black" points="743.5,-948.5 907.5,-948.5 "/>
<text text-anchor="middle" x="782" y="-933.3" font-family="Times,serif" font-size="14.00">pipe</text>
<polyline fill="none" stroke="black" points="820.5,-925.5 820.5,-948.5 "/>
<text text-anchor="middle" x="864" y="-933.3" font-family="Times,serif" font-size="14.00">synth</text>
</g>
<!-- recv&#45;&gt;pipe -->
<g id="edge32" class="edge"><title>recv:pipe&#45;&gt;pipe</title>
<path fill="none" stroke="orange" stroke-width="2" d="M743.5,-1078C743.5,-1067.85 746.249,-1058.26 750.741,-1049.38"/>
<polygon fill="orange" stroke="orange" stroke-width="2" points="753.769,-1051.13 755.776,-1040.73 747.72,-1047.61 753.769,-1051.13"/>
</g>
<!-- hash -->
<g id="node24" class="node"><title>hash</title>
<polygon fill="none" stroke="black" points="511.5,-948.5 511.5,-1017.5 661.5,-1017.5 661.5,-948.5 511.5,-948.5"/>
<text text-anchor="middle" x="586.5" y="-1002.3" font-family="Times,serif" font-size="14.00">cnt_recv:</text>
<polyline fill="none" stroke="black" points="511.5,-994.5 661.5,-994.5 "/>
<text text-anchor="middle" x="560" y="-979.3" font-family="Times,serif" font-size="14.00">vcl_hash{}</text>
<polyline fill="none" stroke="black" points="608.5,-971.5 608.5,-994.5 "/>
<text text-anchor="middle" x="635" y="-979.3" font-family="Times,serif" font-size="14.00">req.*</text>
<polyline fill="none" stroke="black" points="511.5,-971.5 661.5,-971.5 "/>
<text text-anchor="middle" x="586.5" y="-956.3" font-family="Times,serif" font-size="14.00">lookup</text>
</g>
<!-- recv&#45;&gt;hash -->
<g id="edge31" class="edge"><title>recv:hash&#45;&gt;hash</title>
<path fill="none" stroke="green" stroke-width="2" d="M586.5,-1078C586.5,-1061.67 586.5,-1043.74 586.5,-1027.96"/>
<polygon fill="green" stroke="green" stroke-width="2" points="590,-1027.94 586.5,-1017.94 583,-1027.94 590,-1027.94"/>
</g>
<!-- recv&#45;&gt;hash -->
<g id="edge36" class="edge"><title>recv:purge:s&#45;&gt;hash</title>
<path fill="none" stroke="purple" stroke-width="2" d="M641.5,-1078C641.5,-1059.67 633.609,-1041.73 623.804,-1026.53"/>
<polygon fill="purple" stroke="purple" stroke-width="2" points="626.417,-1024.15 617.856,-1017.91 620.656,-1028.13 626.417,-1024.15"/>
</g>
<!-- SYNTH -->
<g id="node5" class="node"><title>SYNTH</title>
<text text-anchor="middle" x="442.5" y="-313.3" font-family="Times,serif" font-size="14.00">SYNTH</text>
</g>
<!-- synth -->
<g id="node10" class="node"><title>synth</title>
<polygon fill="none" stroke="black" points="310,-158 310,-250 473,-250 473,-158 310,-158"/>
<text text-anchor="middle" x="391.5" y="-234.8" font-family="Times,serif" font-size="14.00">cnt_synth:</text>
<polyline fill="none" stroke="black" points="310,-227 473,-227 "/>
<text text-anchor="middle" x="361.5" y="-200.3" font-family="Times,serif" font-size="14.00">vcl_synth{}</text>
<polyline fill="none" stroke="black" points="413,-181 413,-227 "/>
<text text-anchor="middle" x="443" y="-211.8" font-family="Times,serif" font-size="14.00">req.*</text>
<polyline fill="none" stroke="black" points="413,-204 473,-204 "/>
<text text-anchor="middle" x="443" y="-188.8" font-family="Times,serif" font-size="14.00">resp.*</text>
<polyline fill="none" stroke="black" points="310,-181 473,-181 "/>
<text text-anchor="middle" x="350.5" y="-165.8" font-family="Times,serif" font-size="14.00">deliver</text>
<polyline fill="none" stroke="black" points="391,-158 391,-181 "/>
<text text-anchor="middle" x="432" y="-165.8" font-family="Times,serif" font-size="14.00">restart</text>
</g>
<!-- SYNTH&#45;&gt;synth -->
<g id="edge8" class="edge"><title>SYNTH&#45;&gt;synth</title>
<path fill="none" stroke="purple" d="M434.531,-298.656C429.659,-288.052 423.132,-273.847 416.637,-259.71"/>
<polygon fill="purple" stroke="purple" points="419.746,-258.094 412.391,-250.468 413.385,-261.016 419.746,-258.094"/>
</g>
<!-- deliver -->
<g id="node6" class="node"><title>deliver</title>
<polygon fill="none" stroke="black" points="103.5,-146.5 103.5,-261.5 291.5,-261.5 291.5,-146.5 103.5,-146.5"/>
<text text-anchor="middle" x="197.5" y="-246.3" font-family="Times,serif" font-size="14.00">cnt_deliver:</text>
<polyline fill="none" stroke="black" points="103.5,-238.5 291.5,-238.5 "/>
<text text-anchor="middle" x="197.5" y="-223.3" font-family="Times,serif" font-size="14.00">Filter obj.&#45;&gt;resp.</text>
<polyline fill="none" stroke="black" points="103.5,-215.5 291.5,-215.5 "/>
<text text-anchor="middle" x="163.5" y="-188.8" font-family="Times,serif" font-size="14.00">vcl_deliver{}</text>
<polyline fill="none" stroke="black" points="223.5,-169.5 223.5,-215.5 "/>
<text text-anchor="middle" x="257.5" y="-200.3" font-family="Times,serif" font-size="14.00">req.*</text>
<polyline fill="none" stroke="black" points="223.5,-192.5 291.5,-192.5 "/>
<text text-anchor="middle" x="257.5" y="-177.3" font-family="Times,serif" font-size="14.00">resp.*</text>
<polyline fill="none" stroke="black" points="103.5,-169.5 291.5,-169.5 "/>
<text text-anchor="middle" x="136.5" y="-154.3" font-family="Times,serif" font-size="14.00">restart</text>
<polyline fill="none" stroke="black" points="169.5,-146.5 169.5,-169.5 "/>
<text text-anchor="middle" x="202.5" y="-154.3" font-family="Times,serif" font-size="14.00">deliver</text>
<polyline fill="none" stroke="black" points="235.5,-146.5 235.5,-169.5 "/>
<text text-anchor="middle" x="263.5" y="-154.3" font-family="Times,serif" font-size="14.00">synth</text>
</g>
<!-- V1D_Deliver -->
<g id="node7" class="node"><title>V1D_Deliver</title>
<ellipse fill="none" stroke="black" cx="264.5" cy="-91" rx="69.5877" ry="18"/>
<text text-anchor="middle" x="264.5" y="-87.3" font-family="Times,serif" font-size="14.00">V1D_Deliver</text>
</g>
<!-- deliver&#45;&gt;V1D_Deliver -->
<g id="edge3" class="edge"><title>deliver:deliver:s&#45;&gt;V1D_Deliver</title>
<path fill="none" stroke="green" stroke-width="2" d="M202.5,-146C195.201,-131.183 201.056,-119.503 211.797,-110.853"/>
<polygon fill="green" stroke="green" stroke-width="2" points="214.022,-113.575 220.364,-105.088 210.114,-107.767 214.022,-113.575"/>
</g>
<!-- deliver&#45;&gt;V1D_Deliver -->
<g id="edge4" class="edge"><title>deliver:deliver:s&#45;&gt;V1D_Deliver</title>
<path fill="none" stroke="red" stroke-width="2" d="M202.5,-146C202.5,-132.102 211.469,-120.964 222.584,-112.497"/>
<polygon fill="red" stroke="red" stroke-width="2" points="224.658,-115.32 230.96,-106.803 220.722,-109.531 224.658,-115.32"/>
</g>
<!-- deliver&#45;&gt;V1D_Deliver -->
<g id="edge5" class="edge"><title>deliver:deliver:s&#45;&gt;V1D_Deliver</title>
<path fill="none" stroke="blue" stroke-width="2" d="M202.5,-146C209.007,-132.791 221.263,-122.075 233.411,-113.777"/>
<polygon fill="blue" stroke="blue" stroke-width="2" points="235.633,-116.51 242.154,-108.16 231.849,-110.62 235.633,-116.51"/>
</g>
<!-- DONE -->
<g id="node9" class="node"><title>DONE</title>
<ellipse fill="none" stroke="black" cx="666.5" cy="-18" rx="40.0939" ry="18"/>
<text text-anchor="middle" x="666.5" y="-14.3" font-family="Times,serif" font-size="14.00">DONE</text>
</g>
<!-- V1D_Deliver&#45;&gt;DONE -->
<g id="edge7" class="edge"><title>V1D_Deliver&#45;&gt;DONE</title>
<path fill="none" stroke="black" d="M320.396,-80.1278C400.137,-66.0442 545.118,-40.4381 619.588,-27.2854"/>
<polygon fill="black" stroke="black" points="620.375,-30.7006 629.614,-25.5147 619.158,-23.8073 620.375,-30.7006"/>
</g>
<!-- stream -->
<g id="node8" class="node"><title>stream</title>
<ellipse fill="turquoise" stroke="turquoise" cx="543.5" cy="-204" rx="52.1524" ry="26.7407"/>
<text text-anchor="middle" x="543.5" y="-207.8" font-family="Times,serif" font-size="14.00">stream?</text>
<text text-anchor="middle" x="543.5" y="-192.8" font-family="Times,serif" font-size="14.00">body</text>
</g>
<!-- stream&#45;&gt;V1D_Deliver -->
<g id="edge6" class="edge"><title>stream&#45;&gt;V1D_Deliver</title>
<path fill="none" stroke="black" stroke-dasharray="1,5" d="M522.957,-179.158C511.783,-167.576 497.08,-154.383 481.5,-146 436.621,-121.851 380.708,-108.269 336.878,-100.767"/>
<polygon fill="black" stroke="black" points="337.302,-97.29 326.867,-99.1227 336.167,-104.197 337.302,-97.29"/>
</g>
<!-- synth&#45;&gt;V1D_Deliver -->
<g id="edge9" class="edge"><title>synth:del:s&#45;&gt;V1D_Deliver</title>
<path fill="none" stroke="purple" d="M350.5,-157C350.5,-135.673 333.46,-120.454 314.55,-110.13"/>
<polygon fill="purple" stroke="purple" points="315.994,-106.939 305.485,-105.589 312.858,-113.197 315.994,-106.939"/>
</g>
<!-- see backend graph -->
<g id="node11" class="node"><title>see backend graph</title>
<text text-anchor="middle" x="329.5" y="-386.3" font-family="Times,serif" font-size="14.00">see backend graph</text>
</g>
<!-- BGFETCH -->
<g id="node12" class="node"><title>BGFETCH</title>
<polygon fill="turquoise" stroke="turquoise" points="147.5,-408 55.5,-408 55.5,-372 147.5,-372 147.5,-408"/>
<text text-anchor="middle" x="101.5" y="-386.3" font-family="Times,serif" font-size="14.00">BGFETCH</text>
</g>
<!-- FETCH -->
<g id="node13" class="node"><title>FETCH</title>
<polygon fill="turquoise" stroke="turquoise" points="235.5,-408 165.5,-408 165.5,-372 235.5,-372 235.5,-408"/>
<text text-anchor="middle" x="200.5" y="-386.3" font-family="Times,serif" font-size="14.00">FETCH</text>
</g>
<!-- FETCH_DONE -->
<g id="node14" class="node"><title>FETCH_DONE</title>
<polygon fill="turquoise" stroke="turquoise" points="259,-335 136,-335 136,-299 259,-299 259,-335"/>
<text text-anchor="middle" x="197.5" y="-313.3" font-family="Times,serif" font-size="14.00">FETCH_DONE</text>
</g>
<!-- FETCH&#45;&gt;FETCH_DONE -->
<g id="edge14" class="edge"><title>FETCH&#45;&gt;FETCH_DONE</title>
<path fill="none" stroke="black" stroke-dasharray="1,5" d="M199.774,-371.813C199.435,-363.789 199.023,-354.047 198.644,-345.069"/>
<polygon fill="black" stroke="black" points="202.139,-344.872 198.22,-335.029 195.145,-345.168 202.139,-344.872"/>
</g>
<!-- FETCH_FAIL -->
<g id="node15" class="node"><title>FETCH_FAIL</title>
<polygon fill="turquoise" stroke="turquoise" points="389.5,-335 277.5,-335 277.5,-299 389.5,-299 389.5,-335"/>
<text text-anchor="middle" x="333.5" y="-313.3" font-family="Times,serif" font-size="14.00">FETCH_FAIL</text>
</g>
<!-- FETCH&#45;&gt;FETCH_FAIL -->
<g id="edge15" class="edge"><title>FETCH&#45;&gt;FETCH_FAIL</title>
<path fill="none" stroke="black" stroke-dasharray="1,5" d="M232.357,-371.994C250.402,-362.361 273.169,-350.207 292.531,-339.87"/>
<polygon fill="black" stroke="black" points="294.269,-342.911 301.442,-335.114 290.972,-336.735 294.269,-342.911"/>
</g>
<!-- FETCH_DONE&#45;&gt;deliver -->
<g id="edge12" class="edge"><title>FETCH_DONE&#45;&gt;deliver</title>
<path fill="none" stroke="red" stroke-width="2" d="M192.438,-298.656C191.617,-291.065 191.095,-281.628 190.873,-271.691"/>
<polygon fill="red" stroke="red" stroke-width="2" points="194.373,-271.595 190.751,-261.638 187.373,-271.68 194.373,-271.595"/>
</g>
<!-- FETCH_DONE&#45;&gt;deliver -->
<g id="edge13" class="edge"><title>FETCH_DONE&#45;&gt;deliver</title>
<path fill="none" stroke="blue" stroke-width="2" d="M202.562,-298.656C203.383,-291.065 203.905,-281.628 204.127,-271.691"/>
<polygon fill="blue" stroke="blue" stroke-width="2" points="207.627,-271.68 204.249,-261.638 200.627,-271.595 207.627,-271.68"/>
</g>
<!-- FETCH_FAIL&#45;&gt;synth -->
<g id="edge11" class="edge"><title>FETCH_FAIL&#45;&gt;synth</title>
<path fill="none" stroke="purple" d="M342.562,-298.656C348.103,-288.052 355.526,-273.847 362.913,-259.71"/>
<polygon fill="purple" stroke="purple" points="366.213,-260.952 367.742,-250.468 360.009,-257.71 366.213,-260.952"/>
</g>
<!-- lookup2 -->
<g id="node16" class="node"><title>lookup2</title>
<polygon fill="none" stroke="black" points="0,-688.5 0,-780.5 287,-780.5 287,-688.5 0,-688.5"/>
<text text-anchor="middle" x="143.5" y="-765.3" font-family="Times,serif" font-size="14.00">cnt_lookup:</text>
<polyline fill="none" stroke="black" points="0,-757.5 287,-757.5 "/>
<text text-anchor="middle" x="79" y="-730.8" font-family="Times,serif" font-size="14.00">vcl_hit{}</text>
<polyline fill="none" stroke="black" points="158,-711.5 158,-757.5 "/>
<text text-anchor="middle" x="222.5" y="-742.3" font-family="Times,serif" font-size="14.00">req.*</text>
<polyline fill="none" stroke="black" points="158,-734.5 287,-734.5 "/>
<text text-anchor="middle" x="222.5" y="-719.3" font-family="Times,serif" font-size="14.00">obj.*</text>
<polyline fill="none" stroke="black" points="0,-711.5 287,-711.5 "/>
<text text-anchor="middle" x="33" y="-696.3" font-family="Times,serif" font-size="14.00">deliver</text>
<polyline fill="none" stroke="black" points="66,-688.5 66,-711.5 "/>
<text text-anchor="middle" x="91" y="-696.3" font-family="Times,serif" font-size="14.00">miss</text>
<polyline fill="none" stroke="black" points="116,-688.5 116,-711.5 "/>
<text text-anchor="middle" x="149" y="-696.3" font-family="Times,serif" font-size="14.00">restart</text>
<polyline fill="none" stroke="black" points="182,-688.5 182,-711.5 "/>
<text text-anchor="middle" x="210" y="-696.3" font-family="Times,serif" font-size="14.00">synth</text>
<polyline fill="none" stroke="black" points="238,-688.5 238,-711.5 "/>
<text text-anchor="middle" x="262.5" y="-696.3" font-family="Times,serif" font-size="14.00">pass</text>
</g>
<!-- lookup2&#45;&gt;deliver -->
<g id="edge20" class="edge"><title>lookup2:deliver:s&#45;&gt;deliver:n</title>
<path fill="none" stroke="green" stroke-width="2" d="M32.5,-688C32.5,-656.366 27.5,-648.634 27.5,-617 27.5,-617 27.5,-617 27.5,-316 27.5,-240.44 181.936,-331.878 196.414,-271.974"/>
<polygon fill="green" stroke="green" stroke-width="2" points="199.897,-272.32 197.5,-262 192.938,-271.563 199.897,-272.32"/>
</g>
<!-- lookup2&#45;&gt;BGFETCH -->
<g id="edge10" class="edge"><title>lookup2:deliver:s&#45;&gt;BGFETCH</title>
<path fill="none" stroke="green" d="M32.5,-688C32.5,-679.056 38.6989,-678.494 41.5,-670 60.8593,-611.294 52.562,-593.447 65.5,-533 74.0904,-492.865 86.1566,-446.901 93.9025,-418.407"/>
<polygon fill="green" stroke="green" points="97.3799,-418.959 96.6433,-408.39 90.6281,-417.111 97.3799,-418.959"/>
<text text-anchor="middle" x="113" y="-551.8" font-family="Times,serif" font-size="14.00">parallel</text>
<text text-anchor="middle" x="113" y="-536.8" font-family="Times,serif" font-size="14.00">if obj expired</text>
</g>
<!-- miss -->
<g id="node18" class="node"><title>miss</title>
<polygon fill="none" stroke="black" points="93.5,-581.5 93.5,-650.5 317.5,-650.5 317.5,-581.5 93.5,-581.5"/>
<text text-anchor="middle" x="205.5" y="-635.3" font-family="Times,serif" font-size="14.00">cnt_miss:</text>
<polyline fill="none" stroke="black" points="93.5,-627.5 317.5,-627.5 "/>
<text text-anchor="middle" x="160" y="-612.3" font-family="Times,serif" font-size="14.00">vcl_miss{}</text>
<polyline fill="none" stroke="black" points="226.5,-604.5 226.5,-627.5 "/>
<text text-anchor="middle" x="272" y="-612.3" font-family="Times,serif" font-size="14.00">req.*</text>
<polyline fill="none" stroke="black" points="93.5,-604.5 317.5,-604.5 "/>
<text text-anchor="middle" x="120" y="-589.3" font-family="Times,serif" font-size="14.00">fetch</text>
<polyline fill="none" stroke="black" points="146.5,-581.5 146.5,-604.5 "/>
<text text-anchor="middle" x="174.5" y="-589.3" font-family="Times,serif" font-size="14.00">synth</text>
<polyline fill="none" stroke="black" points="202.5,-581.5 202.5,-604.5 "/>
<text text-anchor="middle" x="235.5" y="-589.3" font-family="Times,serif" font-size="14.00">restart</text>
<polyline fill="none" stroke="black" points="268.5,-581.5 268.5,-604.5 "/>
<text text-anchor="middle" x="293" y="-589.3" font-family="Times,serif" font-size="14.00">pass</text>
</g>
<!-- lookup2&#45;&gt;miss -->
<g id="edge21" class="edge"><title>lookup2:miss:s&#45;&gt;miss</title>
<path fill="none" stroke="blue" stroke-width="2" d="M90.5,-688C90.5,-676.143 94.9806,-666.201 102.173,-657.88"/>
<polygon fill="blue" stroke="blue" stroke-width="2" points="104.814,-660.192 109.49,-650.685 99.9057,-655.2 104.814,-660.192"/>
</g>
<!-- lookup2&#45;&gt;pass -->
<g id="edge22" class="edge"><title>lookup2:pass:s&#45;&gt;pass</title>
<path fill="none" stroke="red" stroke-width="2" d="M262.5,-688C262.5,-655.144 308.523,-678.501 326.5,-651 350.902,-613.669 353.213,-561.635 350.954,-524.995"/>
<polygon fill="red" stroke="red" stroke-width="2" points="354.413,-524.33 350.168,-514.623 347.433,-524.859 354.413,-524.33"/>
</g>
<!-- lookup -->
<g id="node17" class="node"><title>lookup</title>
<polygon fill="none" stroke="grey" points="121.5,-818.5 121.5,-887.5 385.5,-887.5 385.5,-818.5 121.5,-818.5"/>
<text text-anchor="middle" x="253.5" y="-872.3" font-family="Times,serif" font-size="14.00" fill="grey">cnt_lookup:</text>
<polyline fill="none" stroke="grey" points="121.5,-864.5 385.5,-864.5 "/>
<text text-anchor="middle" x="253.5" y="-849.3" font-family="Times,serif" font-size="14.00" fill="grey">hash lookup</text>
<polyline fill="none" stroke="grey" points="121.5,-841.5 385.5,-841.5 "/>
<text text-anchor="middle" x="143.5" y="-826.3" font-family="Times,serif" font-size="14.00" fill="grey">hit?</text>
<polyline fill="none" stroke="grey" points="165.5,-818.5 165.5,-841.5 "/>
<text text-anchor="middle" x="194" y="-826.3" font-family="Times,serif" font-size="14.00" fill="grey">miss?</text>
<polyline fill="none" stroke="grey" points="222.5,-818.5 222.5,-841.5 "/>
<text text-anchor="middle" x="275" y="-826.3" font-family="Times,serif" font-size="14.00" fill="grey">hit&#45;for&#45;pass?</text>
<polyline fill="none" stroke="grey" points="327.5,-818.5 327.5,-841.5 "/>
<text text-anchor="middle" x="356.5" y="-826.3" font-family="Times,serif" font-size="14.00" fill="grey">busy?</text>
</g>
<!-- lookup&#45;&gt;lookup2 -->
<g id="edge19" class="edge"><title>lookup:h:s&#45;&gt;lookup2</title>
<path fill="none" stroke="green" stroke-width="2" d="M143.5,-818C143.5,-809.259 143.5,-799.996 143.5,-790.958"/>
<polygon fill="green" stroke="green" stroke-width="2" points="147,-790.888 143.5,-780.888 140,-790.889 147,-790.888"/>
</g>
<!-- lookup&#45;&gt;lookup -->
<g id="edge16" class="edge"><title>lookup:busy:e&#45;&gt;lookup:top:e</title>
<path fill="none" stroke="grey" d="M385.5,-830C391.5,-817 403.5,-817 403.5,-853 403.5,-877.75 397.828,-885.484 392.333,-883.677"/>
<polygon fill="grey" stroke="grey" points="394.763,-881.142 385.5,-876 389.534,-885.797 394.763,-881.142"/>
<text text-anchor="middle" x="447" y="-849.3" font-family="Times,serif" font-size="14.00" fill="grey">(waitinglist)</text>
</g>
<!-- lookup&#45;&gt;miss -->
<g id="edge17" class="edge"><title>lookup:miss:s&#45;&gt;miss</title>
<path fill="none" stroke="blue" stroke-width="2" d="M193.5,-818C193.5,-769.776 267.819,-820.488 295.5,-781 319.226,-747.155 313.532,-725.193 295.5,-688 289.951,-676.554 281.563,-666.398 272.099,-657.601"/>
<polygon fill="blue" stroke="blue" stroke-width="2" points="274.157,-654.753 264.312,-650.839 269.567,-660.038 274.157,-654.753"/>
</g>
<!-- lookup&#45;&gt;pass -->
<g id="edge18" class="edge"><title>lookup:hfp:s&#45;&gt;pass</title>
<path fill="none" stroke="red" stroke-width="2" d="M275.5,-818C275.5,-793.123 304.374,-802.132 317.5,-781 369.845,-696.723 358.231,-661.943 365.5,-563 366.477,-549.703 367.934,-546.109 365.5,-533 364.97,-530.147 364.29,-527.249 363.502,-524.355"/>
<polygon fill="red" stroke="red" stroke-width="2" points="366.781,-523.113 360.468,-514.604 360.097,-525.193 366.781,-523.113"/>
</g>
<!-- miss&#45;&gt;FETCH -->
<g id="edge23" class="edge"><title>miss:fetch:s&#45;&gt;FETCH</title>
<path fill="none" stroke="blue" stroke-width="2" d="M119.5,-581C119.5,-559.459 150.651,-579.499 164.5,-563 199.222,-521.634 203.138,-455.231 202.249,-418.197"/>
<polygon fill="blue" stroke="blue" stroke-width="2" points="205.744,-418.003 201.87,-408.141 198.749,-418.266 205.744,-418.003"/>
</g>
<!-- miss&#45;&gt;pass -->
<g id="edge24" class="edge"><title>miss:pass:s&#45;&gt;pass</title>
<path fill="none" stroke="red" stroke-width="2" d="M293.5,-581C293.5,-560.671 302.064,-540.372 312.241,-523.428"/>
<polygon fill="red" stroke="red" stroke-width="2" points="315.258,-525.206 317.673,-514.89 309.352,-521.448 315.258,-525.206"/>
</g>
<!-- pass&#45;&gt;FETCH -->
<g id="edge25" class="edge"><title>pass:fetch:s&#45;&gt;FETCH</title>
<path fill="none" stroke="red" stroke-width="2" d="M284.5,-445C284.5,-434.278 264.889,-421.31 244.618,-410.77"/>
<polygon fill="red" stroke="red" stroke-width="2" points="246.145,-407.62 235.637,-406.265 243.006,-413.877 246.145,-407.62"/>
</g>
<!-- pipe_do -->
<g id="node21" class="node"><title>pipe_do</title>
<ellipse fill="none" stroke="black" cx="844.5" cy="-853" rx="122.159" ry="26.7407"/>
<text text-anchor="middle" x="844.5" y="-856.8" font-family="Times,serif" font-size="14.00">send bereq,</text>
<text text-anchor="middle" x="844.5" y="-841.8" font-family="Times,serif" font-size="14.00">copy bytes until close</text>
</g>
<!-- pipe&#45;&gt;pipe_do -->
<g id="edge26" class="edge"><title>pipe:pipe&#45;&gt;pipe_do</title>
<path fill="none" stroke="orange" stroke-width="2" d="M781.5,-925C781.5,-910.004 789.461,-896.698 799.722,-885.775"/>
<polygon fill="orange" stroke="orange" stroke-width="2" points="802.379,-888.074 807.125,-878.602 797.507,-883.047 802.379,-888.074"/>
</g>
<!-- pipe_do&#45;&gt;DONE -->
<g id="edge27" class="edge"><title>pipe_do&#45;&gt;DONE</title>
<path fill="none" stroke="orange" stroke-width="2" d="M823.966,-826.383C807.983,-803.829 788.5,-769.386 788.5,-735.5 788.5,-735.5 788.5,-735.5 788.5,-90 788.5,-53.9782 748.279,-35.9149 714.025,-27.0631"/>
<polygon fill="orange" stroke="orange" stroke-width="2" points="714.638,-23.6114 704.1,-24.7026 713.018,-30.4215 714.638,-23.6114"/>
</g>
<!-- restart&#45;&gt;recv -->
<g id="edge29" class="edge"><title>restart:ok:s&#45;&gt;recv</title>
<path fill="none" stroke="black" d="M794.5,-1185C794.5,-1173.15 789.807,-1163.12 782.433,-1154.67"/>
<polygon fill="black" stroke="black" points="784.891,-1152.18 775.315,-1147.65 779.974,-1157.16 784.891,-1152.18"/>
</g>
<!-- err_restart -->
<g id="node23" class="node"><title>err_restart</title>
<text text-anchor="middle" x="876.5" y="-1109.3" font-family="Times,serif" font-size="14.00">SYNTH</text>
</g>
<!-- restart&#45;&gt;err_restart -->
<g id="edge30" class="edge"><title>restart:max:s&#45;&gt;err_restart</title>
<path fill="none" stroke="purple" d="M875.5,-1185C875.5,-1170.65 875.707,-1154.67 875.932,-1141.51"/>
<polygon fill="purple" stroke="purple" points="879.437,-1141.28 876.122,-1131.22 872.438,-1141.15 879.437,-1141.28"/>
</g>
<!-- hash&#45;&gt;lookup -->
<g id="edge34" class="edge"><title>hash:lookup:w&#45;&gt;lookup</title>
<path fill="none" stroke="green" stroke-width="2" d="M510.5,-960C437.651,-960 361.365,-923.151 311.02,-892.906"/>
<polygon fill="green" stroke="green" stroke-width="2" points="312.596,-889.768 302.238,-887.539 308.945,-895.74 312.596,-889.768"/>
</g>
<!-- purge -->
<g id="node25" class="node"><title>purge</title>
<polygon fill="none" stroke="black" points="508.5,-818.5 508.5,-887.5 666.5,-887.5 666.5,-818.5 508.5,-818.5"/>
<text text-anchor="middle" x="587.5" y="-872.3" font-family="Times,serif" font-size="14.00">cnt_purge:</text>
<polyline fill="none" stroke="black" points="508.5,-864.5 666.5,-864.5 "/>
<text text-anchor="middle" x="561" y="-849.3" font-family="Times,serif" font-size="14.00">vcl_purge{}</text>
<polyline fill="none" stroke="black" points="613.5,-841.5 613.5,-864.5 "/>
<text text-anchor="middle" x="640" y="-849.3" font-family="Times,serif" font-size="14.00">req.*</text>
<polyline fill="none" stroke="black" points="508.5,-841.5 666.5,-841.5 "/>
<text text-anchor="middle" x="545.5" y="-826.3" font-family="Times,serif" font-size="14.00">synth</text>
<polyline fill="none" stroke="black" points="582.5,-818.5 582.5,-841.5 "/>
<text text-anchor="middle" x="624.5" y="-826.3" font-family="Times,serif" font-size="14.00">restart</text>
</g>
<!-- hash&#45;&gt;purge -->
<g id="edge35" class="edge"><title>hash:lookup:s&#45;&gt;purge:top:n</title>
<path fill="none" stroke="purple" stroke-width="2" d="M586.5,-947C586.5,-924.462 587.239,-916.457 587.446,-898.006"/>
<polygon fill="purple" stroke="purple" stroke-width="2" points="590.946,-898.019 587.5,-888 583.946,-897.981 590.946,-898.019"/>
</g>
</g>
</svg>
